<?xml version="1.0" encoding="UTF-8"?>
<svg version="1.1" viewBox="0 0 1600 664" width="1280" height="1280" xmlns="http://www.w3.org/2000/svg">
<path transform="translate(303,73)" d="m0 0-1 2c0.03 1.8 0.13 3.59 0.26 5.39 0.12 1.71 0.12 1.71 0.25 3.46 0.14 1.9 0.14 1.9 0.29 3.84 0.19 2.77 0.39 5.53 0.58 8.3 0.05 0.73 0.1 1.46 0.16 2.22 0.58 8.36 1.06 16.7 1.54 25.1 0.07 1.21 0.07 1.21 0.14 2.45 0.29 5.17 0.59 10.3 0.88 15.5 0.15 2.76 0.31 5.53 0.46 8.29 0.63 11.1 1.26 22.3 1.88 33.4 0.46 8.18 0.92 16.4 1.38 24.5 0.63 11.2 1.26 22.4 1.88 33.7 0.34 6.09 0.68 12.2 1.02 18.3 0.33 5.77 0.65 11.5 0.96 17.3 0.12 2.12 0.24 4.24 0.36 6.36 0.78 13.6 1.1 27.2 0.96 40.9-4.36 0.65-8.47 1.1-12.9 1-1.7-0.04-3.41-0.05-5.12 0l-1 1c-1.81 0.18-3.62 0.3-5.44 0.39-1.16 0.06-2.32 0.12-3.52 0.18-1.26 0.06-2.52 0.12-3.83 0.18-1.28 0.07-2.57 0.13-3.89 0.2-3.43 0.17-6.85 0.34-10.3 0.51-3.49 0.17-6.98 0.35-10.5 0.52-6.86 0.35-13.7 0.69-20.6 1.02-1.31-2.61-1.28-4.75-1.46-7.67-0.12-1.8-0.12-1.8-0.23-3.64l-0.24-3.99c-0.09-1.39-0.18-2.78-0.26-4.17-1.1-17.7-2.04-35.4-3-53.1-0.26-4.76-0.52-9.53-0.78-14.3-0.12-2.18-0.24-4.37-0.36-6.55-0.43-7.86-0.96-15.7-1.67-23.5-1.76 3.19-2.69 6.28-3.57 9.81-0.29 1.17-0.59 2.35-0.89 3.56-0.32 1.27-0.63 2.55-0.95 3.86-0.34 1.34-0.67 2.68-1.01 4.02-0.89 3.57-1.77 7.15-2.66 10.7-0.73 2.94-1.46 5.89-2.19 8.84-4.16 16.7-8.3 33.4-12.3 50.1-2.24 9.43-4.84 18.8-7.47 28.1-6.49 0.41-13 0.82-19.5 1.23-2.2 0.14-4.4 0.27-6.6 0.41-13.6 0.87-27.3 1.68-40.9 2.36-3.2-5.54-5.85-11-8-17-0.27-0.77-0.55-1.53-0.83-2.32-0.88-2.48-1.74-4.95-2.61-7.43-0.3-0.88-0.61-1.75-0.93-2.66-1.99-5.7-3.91-11.4-5.79-17.2-0.76-2.2-1.63-4.3-2.59-6.42-1.25-3-1.25-3-1.25-7h-2c-0.2-0.62-0.39-1.25-0.59-1.89-2.2-6.79-4.66-13.4-7.22-20.1-3.13-8.12-6.1-16.3-8.93-24.5-0.27-0.77-0.54-1.55-0.81-2.36-0.35-1.01-0.35-1.01-0.71-2.05-0.85-2.38-1.8-4.72-2.74-7.07-0.21 9.44 0.37 18.8 0.93 28.2 0.17 2.9 0.33 5.81 0.5 8.71 0.47 8.26 0.95 16.5 1.43 24.8 0.3 5.07 0.59 10.1 0.88 15.2 0.11 1.91 0.22 3.82 0.33 5.73 0.75 12.5 1.07 24.8 0.93 37.3-8.86 0.52-17.7 1.05-26.6 1.56-4.12 0.25-8.23 0.49-12.4 0.73-3.97 0.24-7.95 0.47-11.9 0.7-1.51 0.09-3.02 0.18-4.54 0.27-14.6 0.87-14.6 0.87-21.6 0.74-1.63-4.36-2.34-8.24-2.62-12.9-0.08-1.15-0.15-2.3-0.23-3.49-0.05-0.87-0.1-1.73-0.15-2.63h-1c-0.01-1.1-0.03-2.2-0.04-3.34-0.33-23.1-1.06-46.2-2.46-69.3-0.07-1.11-0.13-2.21-0.2-3.35-0.19-3.13-0.38-6.25-0.58-9.38-0.06-0.94-0.12-1.87-0.17-2.84-0.09-1.28-0.09-1.28-0.18-2.59-0.05-0.75-0.09-1.5-0.14-2.26-0.19-2.17-0.19-2.17-1.23-4.96-0.05-1.86-0.05-3.72-0.01-5.58 0.06-8.4-0.38-16.8-0.83-25.1-0.09-1.67-0.17-3.35-0.26-5.02-0.18-3.48-0.37-6.96-0.55-10.4-0.24-4.45-0.47-8.9-0.7-13.4-0.18-3.44-0.36-6.88-0.55-10.3-0.08-1.64-0.17-3.28-0.25-4.92-0.12-2.29-0.24-4.58-0.37-6.87-0.07-1.3-0.14-2.6-0.21-3.94-0.23-2.89-0.68-5.57-1.27-8.4-0.04-2.4-0.04-4.79 0-7.19 0.26-4.57 0.26-4.57-1-8.81-0.08-1.89-0.11-3.78-0.1-5.66 0.01-1.13 0.01-2.25 0.01-3.4 0.01-1.18 0.02-2.35 0.03-3.56 0-1.19 0.01-2.37 0.01-3.59 0.01-2.93 0.03-5.86 0.05-8.79 8.2-0.51 16.4-1.01 24.6-1.51 3.81-0.23 7.62-0.47 11.4-0.71 20.6-1.28 41.3-2.24 62-2.78v3c0.8 2.25 1.66 4.48 2.56 6.69 0.4 0.99 0.4 0.99 0.82 2 3.98 9.73 8.22 19.4 12.7 28.9 2.73 5.86 5.14 11.8 7.51 17.8 3.3 8.36 6.85 16.6 10.7 24.7 2.6 5.55 4.94 11.2 7.24 16.9 1.97 4.83 4.05 9.58 6.24 14.3 3.71 8.13 7.2 16.4 10.3 24.8 1.03 2.14 2.2 3.42 3.96 4.99 1.87-2.8 2.56-4.56 3.41-7.74 0.26-0.97 0.53-1.94 0.8-2.94 0.28-1.05 0.56-2.11 0.85-3.2 2.63-9.62 5.45-19.2 8.44-28.7 3.05-9.73 6.01-19.5 8.84-29.3 2.31-7.99 4.7-16 7.1-23.9 3.4-11.3 6.7-22.6 9.91-33.9 1.42-5.02 2.85-10 4.31-15 0.24-0.81 0.47-1.61 0.71-2.43 0.63-1.84 0.63-1.84 1.63-2.84 2.68-0.28 5.34-0.5 8.03-0.68 1.26-0.09 1.26-0.09 2.54-0.18 2.79-0.2 5.58-0.39 8.37-0.58 0.95-0.06 1.9-0.13 2.88-0.2 14.7-1 29.4-1.84 44.1-2.55 0.87-0.04 1.75-0.08 2.66-0.13 9.47-0.45 18.9-0.82 28.4-0.68zm-301 58 1 2zm5 91 1 2z" fill="#FBFDFD"/>
<path transform="translate(1565 3.79)" d="m0 0c0.7 0.07 1.39 0.14 2.11 0.21 2.17 3.26 2.28 4.32 2.38 8.1 0.05 1.56 0.05 1.56 0.1 3.15 0.04 1.68 0.04 1.68 0.08 3.4 0.04 1.15 0.08 2.31 0.12 3.5 0.11 3.7 0.22 7.4 0.32 11.1 0.14 4.86 0.29 9.72 0.44 14.6 0.04 1.67 0.04 1.67 0.08 3.38 0.18 5.65 0.75 10.4 2.48 15.8-0.28 1.68-0.61 3.35-1 5 0.15 0.73 0.29 1.46 0.44 2.21 0.66 3.3 0.8 6.45 0.92 9.81 0.03 0.69 0.05 1.38 0.08 2.08 0.06 1.49 0.11 2.98 0.16 4.46l0.27 7.08c0.26 6.71 0.51 13.4 0.75 20.1 0.15 4.11 0.31 8.22 0.47 12.3l0.18 4.68c0.25 7.42 0.65 14.5 2.32 21.8 0.67 4.01 0.51 7.99 0.44 12-0.05 5.85 0.32 11.7 0.63 17.5l0.3 6c0.25 4.85 0.5 9.7 0.76 14.6 1.41 26.9 1.41 26.9 1.44 39.8 0 0.87 0 1.75 0.01 2.64-0.04 5.82-0.04 5.82-1.17 6.95-1.78 0.19-3.57 0.3-5.37 0.39-1.14 0.06-2.29 0.12-3.48 0.19-1.26 0.06-2.51 0.12-3.81 0.18-1.29 0.06-2.58 0.13-3.91 0.2-2.76 0.13-5.51 0.27-8.26 0.4-3.48 0.17-6.96 0.35-10.4 0.52-32.1 1.64-32.1 1.64-40.7 1.12-1.55-1.54-1.23-3.09-1.35-5.25-0.09-1.37-0.09-1.37-0.17-2.77-0.08-1.5-0.08-1.5-0.16-3.04-0.06-1.05-0.12-2.09-0.18-3.17-0.2-3.44-0.39-6.88-0.58-10.3-0.13-2.37-0.26-4.75-0.4-7.12-0.85-15.2-1.61-30.4-2.34-45.6-0.62-12.9-1.51-25.8-2.82-38.7h-2c-0.11 1.09-0.23 2.18-0.35 3.3-0.67 5.42-1.87 10.7-3.09 16-0.21 0.99-0.43 1.97-0.65 2.99-0.22 0.95-0.43 1.9-0.65 2.87-0.29 1.28-0.29 1.28-0.59 2.59-0.67 2.23-0.67 2.23-2.67 5.23-0.52 2.2-0.97 4.41-1.37 6.63-1.1 5.83-2.33 11.6-3.69 17.4-0.16 0.7-0.32 1.39-0.49 2.1-0.73 3.07-1.5 6.1-2.38 9.12-1.14 4.05-2.15 8.12-3.13 12.2-0.39 1.62-0.78 3.24-1.17 4.85-0.6 2.52-1.2 5.03-1.81 7.55-4.32 18-4.32 18-6.96 26.2-36 2.35-36 2.35-52.7 2.91-2.07 0.09-4.15 0.22-6.22 0.36-2.81 0.15-5.31 0.26-8.07-0.27-2.56-2.56-2.56-2.56-4-6-0.51-1.09-1.03-2.18-1.56-3.31-1.01-2.6-1.95-5.16-2.82-7.81-3.81-11.5-7.82-23-12.2-34.3-1.85-4.85-3.61-9.73-5.38-14.6-2.54-7.03-5.14-14-7.85-21-1.66-4.34-3.2-8.73-4.74-13.1-2.02-5.67-4.24-11.3-6.41-16.9 1.07 26.1 2.35 52.1 3.95 78.1 0.63 10.3 1.22 20.5 1.7 30.8 0.06 1 0.11 1.99 0.16 3.02 0.04 0.91 0.08 1.82 0.12 2.75 0.04 0.81 0.08 1.61 0.12 2.44-0.05 1.84-0.05 1.84-1.05 2.84-2.4 0.22-4.77 0.37-7.18 0.49-0.75 0.03-1.5 0.07-2.28 0.11-2.49 0.13-4.98 0.26-7.48 0.38-1.72 0.09-3.45 0.17-5.17 0.26l-13.6 0.69c-4.64 0.23-9.28 0.47-13.9 0.7-9.1 0.46-18.2 0.92-27.3 1.37-2.04-5.15-2.43-9.84-2.68-15.3-0.07-1.4-0.07-1.4-0.15-2.82-0.16-3.1-0.31-6.21-0.46-9.31-0.12-2.23-0.23-4.45-0.35-6.68-0.25-4.78-0.49-9.57-0.73-14.4-0.38-7.57-0.77-15.1-1.16-22.7-0.13-2.58-0.27-5.17-0.4-7.76-0.07-1.3-0.13-2.59-0.2-3.92-0.21-3.99-0.41-7.97-0.62-12-0.94-18.5-1.93-36.9-2.94-55.4-0.07-1.26-0.14-2.51-0.21-3.8-0.47-8.56-0.94-17.1-1.41-25.7-0.44-7.98-0.88-16-1.32-23.9-0.16-3-0.33-6-0.49-9-0.71-12.8-1.32-25.6-1.88-38.4 3.85-1.04 7.61-1.28 11.6-1.46 0.76-0.04 1.52-0.08 2.3-0.11 1.64-0.08 3.29-0.16 4.93-0.24 2.6-0.12 5.19-0.25 7.79-0.38 6.45-0.32 12.9-0.63 19.3-0.94 5.45-0.26 10.9-0.53 16.4-0.8 2.56-0.13 5.12-0.25 7.69-0.37 1.56-0.07 3.12-0.15 4.69-0.23 0.71-0.03 1.43-0.06 2.17-0.1 3.7-0.15 3.7-0.15 7.15-1.37 1.98-0.19 3.96-0.31 5.94-0.37 1.06-0.05 2.12-0.1 3.21-0.15 2.85 0.52 2.85 0.52 4.32 2.57 1.82 3.5 3.4 7.08 4.93 10.7 0.48 1.12 0.48 1.12 0.96 2.26 1.01 2.37 2.01 4.74 3.02 7.11 1.32 3.11 2.64 6.21 3.96 9.32 0.32 0.75 0.63 1.5 0.96 2.27 2.14 5.02 4.36 10 6.66 15 1.53 3.42 2.85 6.91 4.15 10.4 0.74 2.08 0.74 2.08 2.89 2.89 0.37 1.67 0.69 3.33 1 5 0.71 1.88 1.47 3.73 2.26 5.57 0.67 1.58 0.67 1.58 1.36 3.19 0.68 1.61 0.68 1.61 1.38 3.24 0.83 1.99 1.65 3.98 2.47 5.97 3.85 9.31 7.72 18.6 12 27.7 2.41 5.39 4.55 10.9 6.7 16.4 2.92 8.57 2.92 8.57 8.8 15 0.19-0.67 0.37-1.34 0.57-2.04 3.38-12.2 6.79-24.4 10.6-36.5 9.34-28.8 9.34-28.8 17.1-58 0.65-2.34 1.58-4.25 2.67-6.42 0.36-1.36 0.67-2.74 0.94-4.12 1.34-6.36 3.31-12.5 5.26-18.7 0.44-1.38 0.87-2.76 1.3-4.13 0.22-0.69 0.43-1.37 0.66-2.08 1.56-4.98 2.97-9.99 4.26-15 0.58-1.95 0.58-1.95 1.58-2.95 2.59-0.23 5.16-0.4 7.76-0.53 0.77-0.04 1.55-0.09 2.35-0.13 2.48-0.14 4.97-0.27 7.45-0.4 1.69-0.09 3.37-0.18 5.05-0.27 4.13-0.23 8.26-0.45 12.4-0.67v-1c1 0.02 2 0.03 3.03 0.04 11.3 0.09 22.5-0.38 33.7-1.04 2.55-0.14 5.09-0.28 7.64-0.42 1.56-0.09 3.12-0.18 4.69-0.27 4.41-0.23 4.41-0.23 8.81-0.52zm5.11 59.2v7h1v-7h-1zm5 88v9h1v-9h-1z" fill="#FBFDFD"/>
<path transform="translate(793,369)" d="m0 0-1 2c0.33 2 0.66 4 1 6 0.29 3.64 0.44 7.28 0.61 10.9 0.06 1.1 0.11 2.2 0.17 3.33 0.12 2.41 0.23 4.81 0.35 7.22 0.29 5.99 0.59 12 0.89 18 0.07 1.41 0.14 2.83 0.21 4.25 0.79 15.9 1.65 31.8 2.52 47.7 0.13 2.24 0.25 4.49 0.37 6.73 1.05 19.1 2.12 38.2 3.21 57.2 0.12 2 0.23 3.99 0.34 5.99 0.5 8.75 1 17.5 1.51 26.2 1.06 18.4 2.11 36.9 2.82 55.4-8.69 0.53-17.4 1.05-26.1 1.56-4.04 0.25-8.08 0.49-12.1 0.73-3.91 0.24-7.81 0.47-11.7 0.7-1.49 0.09-2.97 0.18-4.45 0.27-7.89 0.48-15.7 0.89-23.6 0.74-1.19-2.38-1.25-4.06-1.43-6.72-0.07-1.05-0.14-2.09-0.22-3.17-0.07-1.19-0.15-2.38-0.23-3.61-0.08-1.27-0.16-2.54-0.25-3.85-1.01-15.8-1.76-31.7-2.56-47.6-0.92-18-1.9-36.1-3.31-54.1-2.8 10.3-5.45 20.5-7.32 31-0.68 3-0.68 3-1.67 4.91-1.54 3.18-1.94 6.57-2.51 10-1.24 7.43-1.24 7.43-2.43 10.3-1.34 3.44-2.18 6.94-3.02 10.5-0.18 0.76-0.36 1.51-0.55 2.28-0.39 1.61-0.77 3.22-1.16 4.83-0.99 4.18-2 8.36-3.01 12.5-0.2 0.82-0.4 1.65-0.61 2.5-1.68 6.94-3.42 13.9-5.22 20.8-0.24 0.93-0.49 1.87-0.74 2.83-1.63 6.22-1.63 6.22-2.76 8.48-3.86 0.86-7.69 1.18-11.6 1.39-1.63 0.09-1.63 0.09-3.28 0.18-1.15 0.06-2.31 0.12-3.5 0.18-1.19 0.07-2.39 0.13-3.63 0.2-2.52 0.14-5.05 0.27-7.58 0.41-3.87 0.2-7.73 0.41-11.6 0.62-2.46 0.13-4.92 0.27-7.38 0.4-1.16 0.06-2.31 0.12-3.5 0.19-1.08 0.06-2.16 0.11-3.28 0.17-0.94 0.05-1.89 0.1-2.86 0.15-2.93 0.12-5.84 0.13-8.77 0.11l-1-3h-2c-0.79-2.04-1.58-4.08-2.38-6.12-0.44-1.14-0.88-2.28-1.33-3.45-1.17-3.12-2.23-6.26-3.29-9.43-0.93-2.48-1.87-4.96-2.81-7.44-2.53-6.66-4.83-13.4-7.01-20.2-1.23-3.55-2.66-6.96-4.18-10.4-2.97-6.93-5.71-13.8-8-21-0.83-2.54-1.66-5.08-2.5-7.62-0.6-1.85-0.6-1.85-1.22-3.73-1.27-3.63-2.74-7.12-4.28-10.6-0.75-1.89-1.48-3.78-2.19-5.69-0.34-0.91-0.69-1.82-1.04-2.76-0.77-2.55-0.77-2.55-0.77-6.55h-2c0.05 0.64 0.1 1.28 0.15 1.94 1.25 16.1 2.2 32.2 2.97 48.4 0.53 11 1.13 22 1.87 32.9 0.82 12.3 1.28 24.5 1.01 36.8-14.5 1.15-29 2.17-43.5 2.99-1.54 0.09-3.08 0.18-4.63 0.27-27.2 1.59-27.2 1.59-30.9-0.26-0.03-0.57-0.06-1.15-0.09-1.74-0.73-14-1.47-28-2.21-42.1-0.35-6.79-0.71-13.6-1.06-20.4-0.34-6.56-0.69-13.1-1.03-19.7-0.13-2.49-0.26-4.98-0.39-7.47-0.59-11.2-1.18-22.5-1.96-33.7-0.67-9.97-1.14-20-1.67-30-0.13-2.49-0.27-4.99-0.4-7.48-0.28-5.2-0.55-10.4-0.83-15.6-0.28-5.33-0.57-10.7-0.85-16-0.35-6.47-0.69-12.9-1.04-19.4-0.13-2.46-0.26-4.92-0.39-7.37-0.18-3.43-0.36-6.85-0.55-10.3-0.05-1.01-0.1-2.02-0.16-3.05-0.26-4.97-0.43-9.91-0.37-14.9 3.95-1.32 7.84-1.37 12-1.57 0.92-0.05 1.83-0.1 2.78-0.15 3.03-0.16 6.07-0.32 9.11-0.47 2.1-0.11 4.2-0.22 6.31-0.33 5.53-0.29 11.1-0.58 16.6-0.87 5.65-0.29 11.3-0.59 17-0.88 11.1-0.58 22.2-1.16 33.3-1.73 0.31 0.78 0.62 1.57 0.93 2.37 1 2.56 1 2.56 2.11 4.69 0.98 1.98 1.63 3.9 2.27 6 1.12 3.43 2.43 6.67 3.95 9.94 2.88 6.26 5.57 12.6 8.24 18.9 0.46 1.09 0.92 2.18 1.39 3.3 2.28 5.39 4.54 10.8 6.77 16.2 1.66 3.98 3.37 7.92 5.22 11.8 2.32 5 4.59 10 6.81 15.1 0.28 0.65 0.57 1.29 0.86 1.96 1.42 3.24 2.75 6.5 3.98 9.82 1.28 3.47 2.76 6.81 4.35 10.2 3.31 7.1 6.39 14.3 9.21 21.6 0.34 0.88 0.68 1.76 1.03 2.67 0.3 0.77 0.59 1.55 0.89 2.34 1.44 3.13 2.87 5.6 5.99 7.16 1.46-4.88 2.91-9.77 4.37-14.6 0.49-1.66 0.98-3.31 1.48-4.96 2.71-9.07 5.38-18.2 7.96-27.3 3.71-13.1 7.63-26 11.5-39 0.78-2.6 1.56-5.21 2.35-7.81 3.71-12.4 7.43-24.7 11.2-37.1 0.27-0.91 0.55-1.81 0.83-2.74 0.26-0.86 0.52-1.71 0.78-2.59 0.22-0.72 0.44-1.45 0.67-2.2 1.23-3.9 2.54-7.77 3.84-11.6 11.5-0.65 22.9-1.31 34.4-1.96 5.32-0.3 10.6-0.6 16-0.9 5.14-0.3 10.3-0.59 15.4-0.88 1.96-0.11 3.91-0.22 5.87-0.33 2.75-0.16 5.5-0.32 8.25-0.47 0.81-0.05 1.61-0.09 2.44-0.14 4.89-0.27 9.74-0.36 14.6-0.32z" fill="#FBFCFD"/>
<path transform="translate(1203,364)" d="m0 0c1.01 0.5 2.01 0.99 3.05 1.5 6.71 3.49 13.2 7.56 19 12.5v2c0.8 0.34 0.8 0.34 1.62 0.69 4.75 2.62 8.02 5.48 10.4 10.3 1.03 1.38 2.1 2.73 3.19 4.06 19.2 24.4 27 53.7 27 84.4v3.04c-0.06 7.05-0.59 13.6-2.19 20.5-0.16 0.81-0.32 1.63-0.49 2.47-2.86 14.2-7.48 27.4-15.5 39.5-0.46 0.73-0.92 1.47-1.39 2.22-6.01 9.38-12.9 17.8-21.6 24.8-0.82 0.68-1.63 1.36-2.48 2.06-4.63 3.81-9.24 7.08-14.5 9.94-0.9 0.49-0.9 0.49-1.82 0.98-9.41 5.02-18.8 9.22-29.2 12-0.89 0.25-1.79 0.5-2.71 0.75-9.48 2.43-18.8 3.11-28.5 3.69-1.84 0.12-3.69 0.23-5.53 0.35-6.74 0.43-13.5 0.82-20.2 1.21-1.06 0.06-1.06 0.06-2.14 0.12-12.2 0.71-24.4 1.39-36.6 2.07-0.82 0.04-1.63 0.09-2.48 0.14-4.76 0.26-9.53 0.52-14.3 0.78-1.47 0.08-2.93 0.16-4.4 0.24-7.38 0.41-14.7 0.75-22.1 0.65-1.41-2.81-1.29-5.32-1.46-8.46-0.04-0.67-0.08-1.33-0.12-2.01-0.12-2.21-0.24-4.41-0.36-6.62-0.08-1.53-0.17-3.07-0.26-4.61-0.22-4.06-0.44-8.12-0.66-12.2-0.36-6.46-0.72-12.9-1.08-19.4-0.12-2.24-0.24-4.48-0.36-6.73-0.08-1.41-0.16-2.82-0.24-4.22-0.06-1.21-0.13-2.43-0.19-3.67-0.2-3.3-0.48-6.59-0.76-9.88-0.49-5.78-0.84-11.6-1.14-17.4-0.06-1.04-0.11-2.09-0.17-3.16-0.18-3.43-0.36-6.85-0.54-10.3-0.13-2.43-0.26-4.86-0.38-7.28-0.34-6.4-0.68-12.8-1.01-19.2-0.4-7.63-0.81-15.2-1.21-22.9-0.32-6.17-0.65-12.3-0.97-18.5-0.56-10.6-1.12-21.2-1.73-31.8-0.09-1.7-0.19-3.39-0.28-5.09-0.17-2.98-0.35-5.96-0.52-8.94-0.55-9.57-0.65-19.1-0.56-28.7 13.7-0.79 27.4-1.57 41-2.35 6.36-0.36 12.7-0.72 19.1-1.09l18.4-1.05c2.33-0.13 4.66-0.26 6.99-0.4 32.4-1.88 62.8-1.77 92.5 12.9zm-86.1 56.4c-0.75 0.04-1.5 0.08-2.28 0.12-3.96 0.17-3.96 0.17-7.66 1.44 0.83 18.1 1.78 36.3 2.73 54.4 0.23 4.32 0.45 8.65 0.68 13 0.17 3.38 0.35 6.76 0.53 10.1 0.08 1.6 0.16 3.19 0.24 4.79-0.68 14.9-0.68 14.9 2.82 27.7 19.7 0.72 41.7-1.62 57-15 0.59-0.48 1.19-0.95 1.8-1.45 7.61-6.7 13.4-18.4 14.2-28.6 0.46-9.45 0.62-18.8-2-28-0.26-0.93-0.53-1.86-0.8-2.82-0.71-2.4-1.44-4.79-2.2-7.18h-2c-0.12-0.57-0.24-1.14-0.37-1.73-2.45-8.85-8.29-15.1-16-19.7-15.2-7.94-29.8-8.04-46.6-7.12z" fill="#FAFCFC"/>
<path transform="translate(1497 356)" d="m0 0c0.52 0.47 1.05 0.93 1.59 1.41v2c0.7 0.19 1.4 0.37 2.12 0.56 3.92 1.96 6.41 4.85 8.88 8.44v2c0.62 0.08 1.24 0.17 1.87 0.25 2.13 0.75 2.13 0.75 3.19 2.69 0.31 0.68 0.62 1.36 0.94 2.06l3 2 1 3c0.43 0.41 0.87 0.83 1.31 1.25 1.66 1.71 2.6 3.24 3.75 5.31 1.71 3.39 1.71 3.39 3.94 5.44 2.17 4.26 4.06 8.64 6 13 0.67 1.5 0.67 1.5 1.36 3.04 11.7 27 15.6 65.1 5.16 93.2-0.5 1.26-1.01 2.52-1.52 3.77-0.52 1.32-0.52 1.32-1.04 2.67-3.17 7.71-6.74 15.1-11 22.3-0.45 0.77-0.89 1.54-1.36 2.34-2.53 4.22-2.53 4.22-3.64 5.66h-2c-0.27 0.8-0.54 1.61-0.81 2.44-0.39 0.84-0.79 1.69-1.19 2.56-0.99 0.33-1.98 0.66-3 1-0.33 0.83-0.66 1.65-1 2.5-0.33 0.83-0.66 1.65-1 2.5-0.99 0.33-1.98 0.66-3 1l-2 4c-0.99 0.33-1.98 0.66-3 1v2c-1.65 1.03-3.32 2.02-5 3l-1.4 1.4c-20.9 20.9-53.8 28-82.2 28.1-12.5-0.03-24.4-1.04-36.4-4.5-1-0.27-1-0.27-2.02-0.55-10.3-2.87-19.6-7.49-29-12.4l-2-1v-2c-0.85-0.15-0.85-0.15-1.73-0.3-2.75-0.85-4.41-2.14-6.65-3.95-0.78-0.63-1.55-1.26-2.36-1.9-0.74-0.61-1.49-1.22-2.26-1.85-0.63-0.5-1.27-0.99-1.92-1.5-1.4-1.12-2.75-2.3-4.08-3.5v-2c-0.58-0.24-1.16-0.48-1.75-0.73-2.69-1.52-4.25-3.29-6.25-5.64-1.93-2.26-3.81-4.45-5.95-6.5-4.82-5.02-8.4-11.2-12-17.1-0.56-0.9-0.56-0.9-1.13-1.81-16-26.4-18.6-63.1-11.6-92.9 0.55-2.12 1.14-4.21 1.77-6.31 0.2-0.69 0.4-1.38 0.6-2.1 3.48-12 8.9-22.3 15.4-32.9 0.51-0.92 1.03-1.84 1.55-2.79 0.48-0.73 0.96-1.46 1.45-2.21h2c0.26-0.58 0.52-1.16 0.79-1.75 1.29-2.4 2.76-4.17 4.58-6.19 1.92-2.12 3.74-4.21 5.47-6.49 18.2-21.6 50.5-34.3 77.9-37.4 35-2.56 66.8 4.05 95.7 24.4zm-120 66.4c-10.4 17.4-11.6 39.1-7.05 58.6 2.72 9.55 2.72 9.55 9.08 16.6 0.97 0.44 0.97 0.44 1.97 0.88 1.35 1.52 1.35 1.52 2.62 3.25 6.39 7.71 16.1 11.9 25.9 13 2.59 0.14 5.16 0.17 7.75 0.14 1.37-0.01 1.37-0.01 2.77-0.02 10.8-0.26 20.1-2.92 28.9-9.42 0.87-0.58 1.73-1.15 2.62-1.75 7.73-7.32 13.8-19.2 14.6-29.9 0.4-20.3-1.36-35.4-11.2-53.3h-2c-0.4-0.9-0.4-0.9-0.81-1.81-1.19-2.19-2.29-3.6-4.19-5.19h-2v-2c-22.9-13-51.3-8.32-69 11z" fill="#FAFCFC"/>
<path transform="translate(534 59.9)" d="m0 0h3.92 2.04c2.06 0.01 4.12 0 6.18-0h3.92 3.61c2.86 0.13 2.86 0.13 4.86 1.13 0.06 1.11 0.12 2.22 0.18 3.36 0.55 10.6 1.11 21.2 1.67 31.8 0.29 5.45 0.58 10.9 0.86 16.3 0.33 6.31 0.67 12.6 1 18.9 0.06 1.03 0.11 2.07 0.17 3.13 0.67 12.6 1.41 25.1 2.26 37.7 0.73 10.8 1.23 21.6 1.23 32.5 0.01 2.48 0.04 4.95 0.08 7.42 0.21 29.9-9.7 55.2-30.4 76.8-6.28 6-6.28 6-9 6l-1 3c-2.35 1.57-4.65 2.96-7.12 4.32-0.72 0.39-1.44 0.79-2.18 1.2-20.3 11-41.8 15.9-64.8 15.9h-2.05c-26.1-0.1-52.6-6.92-71.9-25.5-2.05-2.05-2.05-2.05-4.99-3.89v-2h-2c-9.83-9.99-16.9-22.7-21-36-0.35-1.09-0.69-2.18-1.05-3.3-3.93-12.9-5.2-25.8-5.91-39.2-0.08-1.4-0.16-2.79-0.24-4.19-0.21-3.74-0.41-7.48-0.62-11.2-0.21-3.94-0.43-7.88-0.65-11.8-0.37-6.61-0.74-13.2-1.1-19.8-0.41-7.62-0.84-15.2-1.26-22.8-0.46-8.14-0.91-16.3-1.36-24.4-0.13-2.33-0.26-4.66-0.39-6.99-0.2-3.68-0.4-7.35-0.6-11-0.11-1.97-0.22-3.95-0.33-5.92-0.37-6.73-0.59-13.4-0.49-20.2 15.5-1.14 31-2.16 46.6-2.99 1.65-0.09 3.29-0.18 4.94-0.27 9.17-0.5 18.3-0.88 27.5-0.74v3c0.07 1.54 0.16 3.08 0.24 4.62 0.09 1.42 0.09 1.42 0.17 2.86 0.06 1.03 0.12 2.05 0.18 3.11 0.06 1.07 0.12 2.14 0.18 3.24 0.13 2.31 0.27 4.62 0.4 6.93 0.35 6.1 0.7 12.2 1.04 18.3 0.07 1.21 0.14 2.42 0.21 3.68 0.5 8.84 0.99 17.7 1.47 26.5 0.11 2.11 0.23 4.23 0.35 6.34 0.45 8.22 0.86 16.4 1.24 24.7 0.23 4.96 0.47 9.93 0.72 14.9 0.12 2.44 0.23 4.88 0.33 7.32 0.08 21.6 0.08 21.6 7.78 41.2 3.05 2.62 6.05 4.65 9.69 6.31 0.66 0.3 1.32 0.6 1.99 0.91 10.9 4.29 22.5 2.65 33-1.91 6.75-3.73 9.51-9.92 12-17 1.13-4.4 1.15-8.72 1.12-13.2-0.01-0.8-0.01-1.59-0.01-2.41-0.07-8.2-0.47-16.4-0.95-24.6-0.09-1.57-0.17-3.15-0.26-4.72-0.23-4.09-0.46-8.19-0.69-12.3-0.19-3.31-0.38-6.63-0.56-9.94-0.23-4.02-0.45-8.04-0.68-12.1-0.06-1.11-0.06-1.11-0.12-2.24-0.49-8.74-1.04-17.5-1.63-26.2-0.28-4.36-0.53-8.71-0.75-13.1-0.05-0.83-0.09-1.65-0.13-2.5-0.09-1.72-0.18-3.43-0.27-5.14-0.13-2.61-0.27-5.21-0.41-7.81-0.08-1.69-0.17-3.37-0.26-5.05-0.04-0.77-0.08-1.53-0.12-2.32-0.24-4.83-0.31-9.63-0.28-14.5 5.68-0.77 11.3-1.24 17-1.5 1.7-0.08 3.4-0.16 5.09-0.25 2.65-0.12 5.3-0.25 7.94-0.37 2.58-0.12 5.15-0.25 7.72-0.38 0.8-0.03 1.6-0.07 2.42-0.1 5.01-0.26 9.22-1.53 14.3-1.53z" fill="#FBFDFD"/>
<path transform="translate(1226 22.8)" d="m0 0c0.96-0.02 1.91-0.04 2.9-0.05 2.29 0.21 2.29 0.21 4.29 2.21 0.33 1.89 0.33 1.89 0.44 4.24 0.05 0.9 0.1 1.79 0.15 2.71 0.04 1 0.08 1.99 0.13 3.01 0.05 1.05 0.1 2.11 0.16 3.19 0.17 3.56 0.34 7.11 0.5 10.7 0.12 2.51 0.24 5.03 0.37 7.54 0.2 4.08 0.4 8.15 0.59 12.2 0.5 10.3 1.04 20.5 1.61 30.8 0.28 5.11 0.55 10.2 0.83 15.3 0.23 4.16 0.45 8.32 0.69 12.5 0.89 16 1.69 32 1.73 48.1 0 1.74 0 1.74 0.01 3.52-0.05 9.04-0.99 17.5-3.21 26.3-0.26 1.11-0.53 2.21-0.8 3.35-2.93 10.7-8.09 21.4-14.2 30.6l-2 1c-0.26 0.58-0.53 1.16-0.81 1.75-2.12 4.03-4.87 6.81-9.19 8.25l-2 4c-0.99 0.33-1.98 0.66-3 1l-1 3c-1.36 0.99-2.74 1.97-4.17 2.85-1.84 1.13-1.84 1.13-3.52 2.46-25.2 18.8-63.3 22.2-93.5 18-21.8-3.8-42.8-13.8-57.8-30.3v-2h-2c-15-16.7-22-37.3-24.6-59.3-0.12-1.07-0.25-2.14-0.38-3.24-1.44-12.9-2.12-25.9-2.78-38.9-0.19-3.54-0.38-7.08-0.57-10.6-0.31-5.92-0.63-11.8-0.93-17.8-0.36-6.82-0.72-13.6-1.08-20.4-0.39-7.33-0.78-14.7-1.17-22-0.11-2.09-0.22-4.18-0.33-6.26-0.21-3.9-0.41-7.79-0.61-11.7-0.06-1.14-0.12-2.27-0.18-3.45-0.35-6.78-0.49-13.5-0.42-20.3 4.81-0.9 9.59-1.28 14.5-1.53 0.79-0.04 1.58-0.09 2.39-0.13 2.51-0.14 5.01-0.27 7.52-0.4 1.71-0.09 3.41-0.18 5.12-0.27 4.17-0.23 8.34-0.45 12.5-0.67v-1c4.95-0.05 9.9-0.08 14.8-0.11 1.68-0.01 3.37-0.02 5.05-0.04 2.42-0.02 4.84-0.03 7.25-0.04 0.76-0.01 1.51-0.02 2.29-0.03 1.86 0 3.71 0.1 5.56 0.22 2.48 2.48 2.3 3.33 2.46 6.76 0.08 1.5 0.08 1.5 0.15 3.04 0.05 1.1 0.09 2.2 0.14 3.34 0.06 1.15 0.11 2.31 0.17 3.5 0.12 2.51 0.23 5.02 0.35 7.53 0.17 3.99 0.36 7.97 0.55 12 0.2 4.13 0.4 8.27 0.59 12.4 0.98 20.8 2.12 41.7 3.27 62.5 0.2 3.74 0.41 7.47 0.6 11.2 0.23 4.33 0.48 8.67 0.72 13 0.06 1.17 0.12 2.33 0.18 3.53 0.59 9.64 1.54 22.1 8.82 29.2 10.8 6.75 21 8.8 33.6 6.29 7.3-2.08 12.9-3.94 16.8-10.7 4.3-8.34 4.81-14.9 4.82-24.2 0.01-0.72 0.01-1.45 0.01-2.19-0.01-23.8-1.66-47.5-3.04-71.3-0.58-10-1.14-20.1-1.7-30.1-0.2-3.46-0.4-6.93-0.6-10.4l-0.36-6.39c-0.06-0.95-0.12-1.89-0.17-2.86-0.38-6.72-0.44-13.4-0.39-20.2 2.67-1.33 4.85-1.24 7.82-1.39 1.23-0.06 2.45-0.12 3.71-0.18 1.34-0.06 2.69-0.12 4.03-0.18 1.38-0.07 2.76-0.13 4.14-0.2 2.91-0.14 5.81-0.27 8.71-0.4 3.69-0.17 7.38-0.35 11.1-0.52 2.86-0.14 5.72-0.28 8.58-0.41 2.01-0.09 4.02-0.19 6.03-0.28 5.91-0.27 11.8-0.5 17.7-0.6z" fill="#FBFDFD"/>
<path transform="translate(243 421)" d="m0 0c2.31 2.12 2.31 2.12 3.31 4.12 0.66 0.33 1.32 0.67 2 1 0.19 0.96 0.19 0.96 0.38 1.94 0.2 0.68 0.41 1.36 0.62 2.06 0.66 0.31 1.32 0.62 2 0.94 0.99 0.53 0.99 0.53 2 1.06 0.56 2.25 0.56 2.25 1 5 0.96 2.03 1.95 4.03 3 6 0.66-0.32 1.32-0.65 2-1 0.56 2.08 1 3.85 1 6 0.6 1.49 1.23 2.97 1.88 4.44 3.18 7.8 4.17 15.2 4.12 23.6-6.65 0.41-13.3 0.82-19.9 1.23-2.26 0.14-4.51 0.28-6.76 0.42-7.44 0.46-14.9 0.91-22.3 1.35-0.9 0.06-1.79 0.11-2.72 0.17-16.7 1-16.7 1-24.9 0.9-0.73-0.01-1.46-0.01-2.21-0.02-1.72-0.01-3.45-0.03-5.17-0.05-0.37-0.97-0.75-1.95-1.13-2.95-0.52-1.29-1.04-2.57-1.56-3.86-0.24-0.64-0.48-1.28-0.74-1.94-1.76-4.3-3.31-6.36-7.57-8.25-5.6-1.48-10-0.88-15 2-2.63 3.95-2.92 7.33-3 12 0.44 2.93 0.44 2.93 2 5 1.66 0.7 3.33 1.36 5 2 2.08 1.08 4.16 2.17 6.23 3.27 7.35 3.76 14.9 6.34 22.8 8.82 3.96 1.25 7.9 2.55 11.8 3.85 0.78 0.26 1.56 0.52 2.37 0.78 18.2 6.07 35.9 12.6 50.9 24.9 0.56 0.46 1.11 0.91 1.69 1.38 3.23 2.77 4.84 4.99 6.18 8.99 0.94 1.51 1.92 2.99 2.94 4.44 10.2 15.1 11.8 32.8 9.57 50.5-3.95 20-14.6 36-31.2 47.9-28.4 18.4-65 21.9-97.8 15.7-17-3.65-31.7-10-45.5-20.5-0.85-0.63-1.7-1.27-2.58-1.92-2.68-2.3-4.78-4.75-6.98-7.51-0.74-0.93-1.49-1.86-2.25-2.81-1.08-1.36-1.08-1.36-2.19-2.76-0.74-0.88-1.49-1.76-2.26-2.67-2.02-2.7-2.11-4.03-1.74-7.33-0.66-0.33-1.32-0.65-2-1-4.79-7.33-5.93-15.2-6.55-23.8-0.08-1.16-0.17-2.32-0.26-3.52-0.09-1.32-0.09-1.32-0.19-2.68l27.9-1.56c4.33-0.24 8.65-0.48 13-0.73 4.18-0.23 8.36-0.47 12.5-0.7 1.59-0.08 3.18-0.17 4.76-0.26 8.94-0.51 17.8-0.88 26.8-0.75-0.18 0.59-0.37 1.17-0.56 1.77-0.66 3.37 0.51 6.03 1.56 9.23h2c0.19 0.58 0.37 1.16 0.57 1.76 2.76 4.33 7.09 5.9 11.9 7.12 5.53 0.19 9.67-0.89 14.6-3.44 2.6-3.16 2.61-5.19 2.35-9.19-0.52-3.34-1.36-5.49-3.35-8.25-11.7-7.29-25.2-11.1-38.3-15.1-17.3-5.28-33.9-10.9-49.7-19.9v-2c-0.55-0.06-1.1-0.13-1.66-0.21-5.29-1.78-9.38-6.94-13.3-10.8-0.89-0.85-0.89-0.85-1.8-1.72-12-12.7-14.7-30.4-14.5-47.2 0.56-18.2 5.97-34.4 18.3-48.1 0.5-0.58 0.99-1.17 1.5-1.77 36-39.7 116-36.8 155-5.35z" fill="#FAFCFC"/>
<path transform="translate(761,68)" d="m0 0c1.79 1.85 1.79 1.85 3.19 3.62 1.91 2.41 3.17 3.62 5.81 5.38 1.4 2.32 2.72 4.62 4 7 1.56 2.69 2.8 4.8 5 7 5.31 9.22 8.67 22.3 8 33-1 1-1 1-3.34 1.08-1.53-0.03-1.53-0.03-3.09-0.05-1.69-0.02-1.69-0.02-3.41-0.04-2.36-0.03-4.73-0.07-7.09-0.12-1.13-0.01-2.27-0.02-3.44-0.03-1.03-0.02-2.06-0.03-3.12-0.05-2.91 0.17-5.41 0.57-8.24 1.18-5.41 1.14-10.7 1.5-16.2 1.73-1 0.05-2 0.1-3.04 0.14-2.09 0.1-4.19 0.19-6.29 0.28-3.22 0.13-6.44 0.29-9.66 0.44-2.05 0.09-4.09 0.18-6.13 0.27-0.97 0.05-1.93 0.09-2.93 0.14-1.33 0.05-1.33 0.05-2.69 0.11-0.78 0.03-1.56 0.06-2.37 0.1-1.92-0.18-1.92-0.18-3.92-2.18-0.53-1.42-1.01-2.86-1.44-4.31-1.55-5.24-1.55-5.24-4.56-9.69-6.84-2.45-13.1-2.29-20 0-1.18 3.04-1.23 6.2-1.31 9.44-0.04 0.92-0.08 1.85-0.12 2.81 0.58 3.69 1.84 5.05 4.43 7.75 2.48 1.55 5.1 2.69 7.79 3.82 0.79 0.34 1.57 0.68 2.38 1.03 11.1 4.69 22.7 8.29 34.2 12 36.3 11.8 36.3 11.8 43.7 19.2 1.99 1.52 4.01 2.99 6.03 4.46 1.81 1.42 3.38 2.89 4.97 4.54 0.47 0.43 0.95 0.87 1.44 1.31 2.17 2.35 3.8 5.02 5.56 7.69l2 2c9.71 17.9 12 38.1 6.97 57.9-7.12 22.9-7.12 22.9-15.1 27.3-0.61 0.27-1.22 0.54-1.85 0.82-0.68 1.33-1.35 2.66-2 4-0.99 0.33-1.98 0.66-3 1-0.44 0.92-0.44 0.92-0.9 1.86-2.33 4.54-7.81 6.68-12.1 9.14-0.59 0.34-1.17 0.67-1.78 1.02-30.6 17.2-68.8 17.6-102 8.98-15.6-4.84-29.8-13.1-41-25-1.24-1.11-1.24-1.11-2.5-2.25-10.6-11.7-17-28-17.6-43.8 0.04-0.64 0.07-1.29 0.11-1.95 4.06-0.93 8-1.25 12.2-1.48 0.7-0.04 1.4-0.08 2.12-0.12 2.31-0.13 4.62-0.25 6.93-0.37 1.61-0.09 3.23-0.18 4.84-0.27 3.38-0.18 6.75-0.36 10.1-0.54 4.32-0.23 8.63-0.47 13-0.71l9.99-0.54c1.59-0.09 3.18-0.17 4.77-0.26l6.69-0.36c1.27-0.07 2.54-0.13 3.84-0.2 3.53-0.15 7.05-0.18 10.6-0.15l-1 3c0.42 2.21 0.42 2.21 1.25 4.5 0.25 0.77 0.51 1.55 0.77 2.34 2.19 4.82 7.07 8.03 11.9 9.91 6.25 0.76 11.5 0.33 17.1-2.75 2.21-2.34 2.99-3.76 3.02-7-0.35-3.66-0.97-5.92-3.02-9v-3c-0.96-0.37-0.96-0.37-1.94-0.75-5.09-2.08-10.1-4.23-15-6.81-2.53-1.19-4.78-2.01-7.45-2.78-6.17-1.82-12.3-3.71-18.5-5.6-1.09-0.33-2.18-0.67-3.31-1.01-21-6.45-21-6.45-27.9-9.74-2.66-1.26-5.15-2.38-7.94-3.31v-2c-1.32-0.36-1.32-0.36-2.66-0.73-3.62-1.38-5.84-3.02-8.78-5.52-0.94-0.8-1.89-1.61-2.86-2.43-0.89-0.77-1.78-1.53-2.7-2.32-0.74-0.59-1.47-1.18-2.23-1.79-4.66-3.75-4.66-3.75-5.26-6.32-0.17-0.62-0.34-1.25-0.51-1.89-0.99-0.33-1.98-0.66-3-1-1.18-1.99-2.08-3.88-3-6-0.41-0.85-0.81-1.7-1.23-2.57-8.1-17.8-8.19-39.8-1.82-58.2 0.94-2.47 1.96-4.87 3.05-7.27 0.32-0.73 0.64-1.46 0.97-2.22 2.06-4.46 4.39-7.4 8.03-10.8 1.02-1.36 1.02-1.36 2.06-2.75 15.6-18.9 44.6-26.4 67.8-28.6 30.6-2.54 60.7 1.14 86.2 19.4z" fill="#FAFCFC"/>
<path transform="translate(461,387)" d="m0 0c0.99 21.1 1.98 42.2 3 64-21.6 1.25-21.6 1.25-30.8 1.78-6.28 0.36-12.6 0.72-18.8 1.08-5.06 0.3-10.1 0.59-15.2 0.88-1.94 0.11-3.87 0.22-5.81 0.33-2.7 0.16-5.4 0.32-8.11 0.47-1.21 0.07-1.21 0.07-2.44 0.14-5.54 0.32-5.54 0.32-7.77 0.32 0.15 0.63 0.31 1.27 0.46 1.92 0.72 4.12 0.9 8.22 1.1 12.4 0.07 1.26 0.07 1.26 0.13 2.54 0.11 2.05 0.21 4.1 0.31 6.15h1v6c0.99-0.33 1.98-0.66 3-1 2.41-0.2 4.81-0.36 7.23-0.48 0.73-0.04 1.46-0.08 2.21-0.12 2.42-0.13 4.84-0.25 7.26-0.37 1.68-0.09 3.35-0.18 5.03-0.27 4.41-0.23 8.83-0.46 13.2-0.68 4.51-0.23 9.01-0.47 13.5-0.71 8.83-0.46 17.7-0.92 26.5-1.37-0.17 0.61-0.33 1.22-0.5 1.85-0.59 2.54-0.44 4.55-0.2 7.14 0.09 1 0.18 2 0.27 3.04 0.1 1.08 0.2 2.17 0.31 3.28 0.9 10.6 1.44 21.2 1.74 31.8 0.03 0.7 0.05 1.4 0.07 2.11 0.11 3.93 0.21 7.85 0.31 11.8-3.42 1.14-6.31 1.28-9.92 1.46-0.7 0.04-1.4 0.08-2.12 0.12-1.52 0.08-3.03 0.16-4.55 0.24-2.4 0.12-4.8 0.25-7.2 0.38-5.96 0.31-11.9 0.62-17.9 0.94-5.04 0.26-10.1 0.52-15.1 0.8-2.37 0.12-4.74 0.24-7.1 0.36-1.45 0.08-2.9 0.16-4.34 0.24-1.9 0.09-1.9 0.09-3.84 0.19-2.88 0.08-2.88 0.08-4.95 1.27 0.12 3.93 0.24 7.87 0.37 11.8 0.07 1.99 0.13 3.99 0.19 5.98 0.04 1.26 0.08 2.51 0.12 3.8 0.04 1.16 0.08 2.32 0.11 3.51 0.09 2.97 0.09 2.97 1.21 5.91 10.6 0.13 21.2-0.28 31.8-0.88 1.66-0.09 3.33-0.17 4.99-0.26 4.32-0.24 8.65-0.48 13-0.71 4.43-0.25 8.86-0.49 13.3-0.73 8.66-0.47 17.3-0.94 26-1.42-0.25 0.84-0.25 0.84-0.51 1.7-0.53 2.5-0.5 4.53-0.33 7.08 0.06 0.94 0.12 1.89 0.18 2.86 0.07 1.02 0.15 2.04 0.22 3.08 0.1 1.59 0.1 1.59 0.2 3.2 0.22 3.38 0.45 6.76 0.68 10.1 0.22 3.36 0.44 6.71 0.66 10.1 0.14 2.08 0.27 4.17 0.42 6.26 0.09 1.45 0.09 1.45 0.19 2.93 0.06 0.83 0.11 1.66 0.17 2.52 0.18 4.72 0.14 9.44 0.12 14.2-18.8 1.4-37.6 2.6-56.4 3.62-2.77 0.15-5.53 0.3-8.3 0.45-6.53 0.36-13.1 0.72-19.6 1.07-6.69 0.37-13.4 0.73-20.1 1.1l-17.4 0.96c-3.45 0.19-6.89 0.37-10.3 0.56-3.83 0.22-7.65 0.42-11.5 0.63-1.67 0.09-1.67 0.09-3.38 0.19-3.02 0.16-6.04 0.3-9.06 0.42-0.96 0.05-1.93 0.09-2.92 0.14-0.9 0.03-1.8 0.06-2.73 0.09-0.8 0.02-1.59 0.05-2.4 0.08-0.65-0.1-1.29-0.2-1.95-0.31-2.48-3.72-2.46-6.79-2.68-11.1-0.05-0.87-0.1-1.73-0.15-2.62-0.17-3.01-0.33-6.01-0.48-9.02-0.13-2.22-0.25-4.45-0.37-6.67-0.41-7.4-0.81-14.8-1.2-22.2-0.17-3.33-0.35-6.66-0.52-9.99-0.82-15.5-1.64-31.1-2.45-46.6-1.16-22.2-2.34-44.4-3.58-66.5-0.09-1.56-0.09-1.56-0.18-3.15-0.56-10-1.13-20-1.7-30.1-0.21-3.65-0.42-7.31-0.63-11-0.09-1.68-0.19-3.36-0.29-5.04l-0.39-6.93c-0.07-1.29-0.15-2.57-0.22-3.9-0.26-5.4-0.19-10.8-0.16-16.2 21.3-1.17 42.6-2.35 63.9-3.52 9.9-0.54 19.8-1.09 29.7-1.63 8.62-0.48 17.2-0.95 25.9-1.43 4.57-0.25 9.14-0.5 13.7-0.75 4.3-0.24 8.6-0.48 12.9-0.71 1.58-0.09 3.16-0.18 4.73-0.26 2.16-0.12 4.31-0.24 6.46-0.36 1.21-0.06 2.41-0.13 3.66-0.2 2.35-0.11 4.7-0.14 7.05-0.14z" fill="#FAFCFD"/>
<path transform="translate(996,358)" d="m0 0-1 2c0.04 1.81 0.16 3.63 0.3 5.43 0.09 1.12 0.18 2.23 0.27 3.38 0.1 1.2 0.2 2.39 0.31 3.63 0.19 2.47 0.38 4.94 0.57 7.42 0.1 1.21 0.19 2.43 0.29 3.69 0.93 12.4 1.87 25 1.26 37.4-1.63 1.63-3.53 1.26-5.78 1.39-1.54 0.09-1.54 0.09-3.1 0.18-1.12 0.06-2.24 0.12-3.4 0.18-1.15 0.07-2.31 0.13-3.5 0.2-2.46 0.14-4.92 0.27-7.38 0.41-3.7 0.2-7.41 0.41-11.1 0.62-11.2 0.63-22.4 1.21-33.7 1.01-1.69-0.03-3.37-0.02-5.06 0.01l-1 1c-2.18 0.23-4.37 0.41-6.56 0.56-1.2 0.09-2.4 0.17-3.63 0.26-0.93 0.06-1.86 0.12-2.81 0.18-0.12 9.06 0.19 18 1 27 14.7 0.31 29.4-0.64 44.1-1.5 3.75-0.22 7.49-0.43 11.2-0.64 2.32-0.13 4.63-0.27 6.94-0.4 5.27-0.3 10.5-0.54 15.8-0.46v4c0.13 2.51 0.28 5.02 0.44 7.53l0.27 4.56c0.05 0.79 0.1 1.59 0.15 2.4 0.84 14.2 1.44 28.3 1.14 42.5-4.71 0.73-9.37 1.21-14.1 1.48-0.67 0.04-1.35 0.08-2.04 0.12-2.2 0.13-4.41 0.25-6.61 0.37-1.53 0.09-3.07 0.18-4.61 0.27-4.02 0.23-8.05 0.46-12.1 0.68-4.84 0.28-9.68 0.55-14.5 0.83-7.34 0.42-14.7 0.83-22 1.25v32c21.6-0.61 43.1-1.73 64.6-2.98 1.73-0.1 1.73-0.1 3.5-0.2 2.19-0.13 4.38-0.26 6.56-0.39 5.11-0.29 10.2-0.5 15.3-0.43l-1 3c0.31 1.34 0.65 2.67 1 4 0.22 2.51 0.4 5.01 0.54 7.53 0.04 0.74 0.08 1.48 0.13 2.25 0.09 1.58 0.17 3.17 0.26 4.75 0.13 2.34 0.27 4.68 0.41 7.02 0.48 8.53 0.72 17 0.69 25.6-0.01 0.96-0.01 1.92-0.01 2.9-0.01 2.33-0.01 4.66-0.02 6.99-18.2 1.03-36.5 2.05-54.7 3.08-8.48 0.47-17 0.95-25.4 1.43-7.4 0.41-14.8 0.83-22.2 1.24l-11.7 0.66c-17.3 0.98-34.6 1.9-51.9 2.59-1.73-3.46-1.6-7.43-1.91-11.2-0.09-1.03-0.17-2.07-0.26-3.14-1.33-17.1-2.05-34.2-2.89-51.2-0.54-10.9-1.09-21.9-1.64-32.8-0.05-1.09-0.11-2.18-0.17-3.31-1.03-20.6-2.14-41.1-3.32-61.7-0.04-0.69-0.08-1.39-0.12-2.11-0.26-4.65-0.53-9.3-0.8-14-0.07-1.25-0.14-2.51-0.21-3.8-0.35-6.14-0.71-12.3-1.09-18.4-0.2-3.08-0.38-6.16-0.57-9.23-0.08-1.45-0.18-2.9-0.27-4.35-0.77-11.9-0.85-23.8-0.75-35.7 32.7-2.1 65.4-4.01 98.1-5.79 6.19-0.34 12.4-0.68 18.6-1.02 4.85-0.27 9.69-0.53 14.5-0.79 2.29-0.13 4.57-0.25 6.86-0.38 3.16-0.18 6.33-0.35 9.49-0.52 1.37-0.07 1.37-0.07 2.78-0.15 5.9-0.32 11.8-0.41 17.7-0.35z" fill="#F9FBFB"/>
<path transform="translate(975 35.8)" d="m0 0c1.44-0.02 1.44-0.02 2.91-0.04 2.47 0.23 2.47 0.23 4.47 2.23 0.31 2.42 0.51 4.75 0.63 7.19 0.04 0.73 0.08 1.46 0.12 2.21 0.14 2.39 0.25 4.77 0.37 7.16 0.06 1.21 0.06 1.21 0.13 2.45 0.55 10.6 0.92 21.1 0.93 31.7v3.16c-0.05 7.01-0.05 7.01-1.18 8.15-2.51 0.16-5 0.26-7.51 0.31-1.14 0.04-1.14 0.04-2.3 0.07l-7.32 0.18c-1.62 0.04-3.24 0.09-4.87 0.13-12.1 0.32-12.1 0.32-17 0.26-2.92-0.31-2.92-0.31-4.04 1.05-9.73 1.1-19.6 1.26-29.4 1.56-1.33 0.04-2.67 0.09-4 0.13-3.21 0.11-6.42 0.21-9.62 0.31 0.13 3.89 0.28 7.79 0.43 11.7 0.04 1.1 0.08 2.2 0.12 3.34 0.04 1.06 0.09 2.13 0.13 3.23 0.04 0.98 0.07 1.96 0.11 2.97 0.2 2.66 0.62 5.16 1.21 7.77 11.8-0.4 23.6-0.85 35.4-1.51 0.81-0.05 1.62-0.09 2.45-0.14 3.98-0.22 7.97-0.45 12-0.69 9.4-0.55 18.7-0.78 28.2-0.66-0.34 0.66-0.66 1.32-1 2 0.3 1.34 0.64 2.67 1 4 0.13 1.48 0.23 2.96 0.29 4.44 0.04 0.87 0.08 1.74 0.12 2.64 0.04 0.94 0.08 1.87 0.12 2.84s0.09 1.94 0.13 2.94c0.09 2.06 0.18 4.11 0.26 6.17 0.14 3.13 0.27 6.25 0.41 9.38 0.09 2 0.18 4 0.26 6.01 0.04 0.92 0.08 1.85 0.13 2.8 0.23 5.6 0.31 11.2 0.28 16.8-4.42 0.82-8.71 1.2-13.2 1.39-0.7 0.03-1.39 0.06-2.1 0.09-2.28 0.09-4.55 0.18-6.82 0.27-1.59 0.07-3.17 0.13-4.75 0.2-4.15 0.17-8.31 0.34-12.5 0.51-4.24 0.17-8.49 0.34-12.7 0.52-8.31 0.34-16.6 0.68-24.9 1.02 0.14 3.81 0.28 7.62 0.43 11.4 0.04 1.07 0.08 2.14 0.12 3.25 0.25 6.15 0.68 12.2 1.45 18.3 15.8 0.24 31.5-0.53 47.3-1.5 29.2-1.78 29.2-1.78 41.7-1.5-0.34 0.66-0.66 1.32-1 2 0.31 2 0.65 4 1 6 0.25 3.1 0.39 6.21 0.53 9.31 0.04 0.9 0.09 1.79 0.13 2.71 0.09 1.89 0.18 3.77 0.26 5.66 0.14 2.85 0.27 5.69 0.41 8.54 0.46 9.6 0.82 19.2 0.67 28.8-4.67 1.12-9.3 1.33-14.1 1.57-0.91 0.05-1.81 0.1-2.74 0.15-2.99 0.16-5.98 0.31-8.97 0.47l-6.27 0.33c-4.38 0.23-8.77 0.46-13.2 0.69-5.59 0.29-11.2 0.59-16.8 0.88l-13 0.69c-2.06 0.1-4.12 0.21-6.17 0.32-10.2 0.55-20.3 1.04-30.5 0.84-2.34-0.22-2.34-0.22-3.38 1.06-2.49 0.23-4.96 0.4-7.45 0.53-0.76 0.05-1.52 0.09-2.31 0.13-1.63 0.09-3.25 0.18-4.88 0.27-2.43 0.13-4.87 0.27-7.3 0.41-4.69 0.26-9.37 0.48-14.1 0.66-0.75 0.03-1.5 0.06-2.26 0.09-2.1 0.07-4.2 0.12-6.3 0.15-1.2 0.03-2.4 0.06-3.63 0.08-0.93-0.1-1.86-0.21-2.81-0.32-2.59-3.88-2.44-7.29-2.6-11.8-0.06-1.31-0.06-1.31-0.12-2.65-0.13-2.8-0.24-5.61-0.35-8.42-0.11-2.77-0.23-5.54-0.35-8.31-0.08-1.72-0.15-3.44-0.22-5.17-0.19-4.62-0.48-9.23-0.85-13.8-0.51-6.52-0.87-13-1.18-19.6-0.1-2.15-0.21-4.29-0.31-6.44-0.16-3.16-0.31-6.32-0.47-9.48-1.28-26.3-2.66-52.6-4.15-78.8-0.11-1.8-0.11-1.8-0.21-3.64-0.68-12-1.37-24-2.06-36-0.26-4.5-0.52-8.99-0.78-13.5-0.18-3.11-0.36-6.22-0.54-9.33l-0.33-5.67c-0.05-0.84-0.1-1.67-0.15-2.54-0.28-4.96-0.38-9.88-0.33-14.8 2.54-1.28 4.51-1.24 7.36-1.38 1.12-0.05 2.24-0.11 3.4-0.17 1.82-0.08 1.82-0.08 3.69-0.17 1.25-0.06 2.49-0.13 3.78-0.19 4-0.2 8.01-0.4 12-0.59 4-0.2 7.99-0.39 12-0.59 2.48-0.13 4.97-0.25 7.46-0.37 1.13-0.05 2.26-0.11 3.43-0.17 1-0.05 1.99-0.1 3.01-0.15 2.91-0.18 2.91-0.18 5.9-0.73 2.83-0.47 5.52-0.67 8.38-0.76 1.04-0.03 2.08-0.06 3.15-0.1 1.68-0.05 1.68-0.05 3.39-0.1 14-0.47 28-1.12 42.1-1.83 3.32-0.17 6.64-0.34 9.97-0.5l9.66-0.48c1.18-0.06 2.37-0.12 3.59-0.18 1.09-0.05 2.19-0.11 3.31-0.17 0.96-0.05 1.92-0.1 2.91-0.15 4.17-0.37 7.92-1.38 12.2-1.41z" fill="#FAFCFC"/>
<path transform="translate(472,574)" d="m0 0v3c-3.72 1.24-7.11 1.04-11 0.97-12.8-0.11-25.6 0.75-38.4 1.53-3.59 0.22-7.18 0.43-10.8 0.64-2.21 0.13-4.42 0.26-6.63 0.4-7.41 0.44-14.8 0.53-22.2 0.46v-3c1.22 0.02 1.22 0.02 2.46 0.03 9.63 0.07 19.2-0.35 28.8-0.91 1.61-0.09 3.22-0.17 4.83-0.26 4.2-0.24 8.39-0.48 12.6-0.71 5.13-0.3 10.3-0.58 15.4-0.87 3.98-0.22 7.96-0.44 11.9-0.67 0.73-0.04 1.46-0.08 2.2-0.12 1.96-0.12 3.92-0.23 5.88-0.34 1.64-0.08 3.28-0.15 4.92-0.15z" fill="#050607"/>
<path transform="translate(158,484)" d="m0 0c2.63 1.03 5.22 2.1 7.79 3.25 11.6 5.18 23.6 9.04 35.7 13 10.4 3.41 20.6 7.01 30.6 11.5 0.81 0.36 1.63 0.73 2.47 1.1 6 2.77 11.4 5.97 16.5 10.2-0.99 0.5-0.99 0.5-2 1-1.66-0.86-1.66-0.86-3.62-2.19-17.2-11.2-37.9-16.8-57.3-23.1-26.3-8.62-26.3-8.62-30.1-14.7z" fill="#060808"/>
<path transform="translate(158,574)" d="m0 0-1 3c-1.06 0.03-1.06 0.03-2.15 0.06-12.6 0.36-25.2 0.77-37.7 1.45-0.83 0.05-1.66 0.09-2.52 0.14-4.06 0.22-8.13 0.45-12.2 0.69-9.81 0.56-19.6 0.77-29.4 0.66v-2c9.31-0.53 18.6-1.05 27.9-1.56 4.33-0.24 8.65-0.49 13-0.73 4.18-0.24 8.36-0.47 12.5-0.7 1.59-0.09 3.18-0.18 4.76-0.27 8.94-0.51 17.8-0.88 26.8-0.74z" fill="#030506"/>
<path transform="translate(167 398)" d="m0 0c18.6-0.38 47.2 0.72 61.9 13.8 0.55 0.65 0.55 0.65 1.11 1.31-3.31-0.42-6.01-1.4-9-2.81-25-11.3-53.3-10.8-80-7.19-2.66 0.34-5.33 0.67-8 1 0.33-0.66 0.66-1.31 1-2 2.6-0.63 5.12-1.13 7.75-1.56 1.16-0.19 1.16-0.19 2.33-0.39 7.63-1.23 15.2-1.85 22.9-2.17z" fill="#050708"/>
<path transform="translate(456,480)" d="m0 0v3c-3.58 1.19-6.79 1.06-10.5 1-8.66-0.07-17.2 0.34-25.9 0.86-13.9 0.82-27.7 1.46-41.6 1.14 3.64-2.43 5.66-2.37 10-2.59 0.71-0.04 1.42-0.08 2.15-0.12 2.34-0.13 4.69-0.25 7.03-0.36 1.63-0.09 3.26-0.17 4.88-0.26 4.29-0.23 8.57-0.45 12.9-0.66 4.36-0.22 8.73-0.45 13.1-0.69 6.37-0.33 12.7-0.66 19.1-0.98 1.28-0.07 2.57-0.13 3.89-0.2 1.66-0.08 3.33-0.14 4.99-0.14z" fill="#030405"/>
<path transform="translate(990,451)" d="m0 0v2c-6.79 0.81-13.6 1.35-20.4 1.75-1.08 0.07-2.16 0.13-3.26 0.2-2.28 0.14-4.55 0.27-6.82 0.41-3.42 0.2-6.83 0.41-10.2 0.62-12.4 0.75-24.8 1.23-37.3 1.02v-3c1.24 0.03 1.24 0.03 2.51 0.05 13.9 0.16 27.7-0.74 41.6-1.55 3.75-0.22 7.49-0.43 11.2-0.64 2.32-0.13 4.63-0.27 6.94-0.4 5.27-0.3 10.5-0.54 15.8-0.46z" fill="#050607"/>
<path transform="translate(1386,504)" d="m0 0c0.93 0.48 1.86 0.96 2.82 1.46 1.24 0.64 2.49 1.28 3.74 1.92 0.61 0.31 1.22 0.63 1.85 0.96 7.51 3.81 14.3 5.05 22.7 5.04 0.93-0.01 1.86-0.01 2.81-0.01 7.67-0.12 13.9-1.53 21.1-4.37 2-0.68 4-1.34 6-2v2c-1.47 0.81-2.95 1.59-4.44 2.38-0.82 0.44-1.64 0.88-2.49 1.33-7.39 3.11-14.6 3.61-22.6 3.54-0.89 0.01-1.77 0.02-2.68 0.02-8.7-0.02-15.7-0.96-22.8-6.27-0.93-0.52-1.86-1.03-2.81-1.56-2.19-1.44-2.19-1.44-3.19-4.44z" fill="#050607"/>
<path transform="translate(1168,520)" d="m0 0v2c-18.1 10.3-33.5 11.4-54 11v-1c3.58-0.85 7.05-1.15 10.7-1.29 14.7-0.58 30.5-10.7 43.3-10.7z" fill="#060708"/>
<path transform="translate(158,574)" d="m0 0-1 3h-30l1-2c10-0.62 20-1.18 30-1z" fill="#0B0D0D"/>
<path transform="translate(456,480)" d="m0 0v3c-3.57 1.19-6.8 1.12-10.5 1.1-0.73 0-1.46-0.01-2.21-0.01-2.32 0-4.64-0.01-6.97-0.03-1.57 0-3.15-0.01-4.73-0.01-3.86-0.01-7.72-0.03-11.6-0.05v-1c1.36-0.09 1.36-0.09 2.74-0.18 1.18-0.09 2.36-0.17 3.57-0.26 1.76-0.12 1.76-0.12 3.55-0.24 3.17-0.21 3.17-0.21 6.14-1.32 1.38-0.14 2.77-0.25 4.16-0.32 1.19-0.06 1.19-0.06 2.4-0.12 1.24-0.06 1.24-0.06 2.5-0.12 0.83-0.05 1.66-0.09 2.51-0.13 5.98-0.31 5.98-0.31 8.43-0.31z" fill="#090B0C"/>
<path transform="translate(218,507)" d="m0 0c4.92 0.69 9.19 2.62 13.7 4.62 0.79 0.36 1.59 0.71 2.41 1.08 6.14 2.79 11.6 6.07 16.9 10.3-0.99 0.5-0.99 0.5-2 1-1.66-0.86-1.66-0.86-3.62-2.19-7.15-4.65-14.9-7.96-22.6-11.4-2.76-1.37-2.76-1.37-4.76-3.37z" fill="#060809"/>
<path transform="translate(158,484)" d="m0 0c3.97 1.56 7.89 3.24 11.8 4.94 5.02 2.16 10 4.21 15.2 6.06-7.17 2.34-15.1-2.81-21.6-5.62-2.56-1.49-3.79-2.91-5.38-5.38z" fill="#040506"/>
<path transform="translate(163,589)" d="m0 0c1.01 0.64 2.02 1.28 3.06 1.94 7.15 4.01 13.3 2.92 20.9 1.06-2.57 2.67-4.35 4.05-8 5-6.01 0.11-10.3-1.02-15-5l-1-3z" fill="#080A0A"/>
<path transform="translate(11,300)" d="m0 0c0.99 0.33 1.98 0.66 3 1v14h-1l-1 7h-1v-22z" fill="#B5BBBA"/>
<path transform="translate(472,574)" d="m0 0v3c-2.82 0.94-4.14 1.07-7.01 0.88-0.76-0.05-1.52-0.1-2.3-0.15s-1.57-0.11-2.38-0.17c-0.79-0.05-1.59-0.1-2.41-0.16-1.97-0.13-3.93-0.26-5.9-0.4v-2c2.96-0.17 5.92-0.33 8.88-0.5 1.26-0.07 1.26-0.07 2.55-0.14 0.8-0.05 1.61-0.09 2.44-0.14 0.74-0.04 1.48-0.09 2.25-0.13 1.29-0.06 2.59-0.09 3.88-0.09z" fill="#080A0B"/>
<path transform="translate(1386,504)" d="m0 0c1.41 0.72 1.41 0.72 2.85 1.46 1.26 0.64 2.52 1.28 3.77 1.92 0.93 0.47 0.93 0.47 1.88 0.96 3.76 1.9 7.46 3.43 11.5 4.66v2c-5.95-0.41-9.13-1.32-14-5-0.93-0.52-1.86-1.03-2.81-1.56-2.19-1.44-2.19-1.44-3.19-4.44z" fill="#090B0B"/>
<path transform="translate(203,403)" d="m0 0c8.77 0.04 19.2 2.75 25.9 8.7 0.36 0.43 0.72 0.86 1.09 1.3-3.31-0.43-6.01-1.41-9-2.81-5.8-2.68-11.9-4.41-18-6.19v-1z" fill="#0A0C0C"/>
<path transform="translate(67,85)" d="m0 0h19c-3 3-3 3-5.23 3.33-0.79-0.03-1.58-0.05-2.39-0.08-0.8-0.02-1.6-0.03-2.42-0.05-1.96-0.2-1.96-0.2-2.96-1.2-2.33-0.04-4.67-0.04-7 0l1-2z" fill="#9BA1A0"/>
<path transform="translate(1052,31)" d="m0 0h15l1 3c-5.78 0.24-10.5-0.13-16-2v-1z" fill="#C0C5C5"/>
<path transform="translate(9,215)" d="m0 0v12h-2c-1.28-3.85-1.07-6.95-1-11 2-1 2-1 3-1zm-2 7 1 2z" fill="#D4DADA"/>
<path transform="translate(1350,15)" d="m0 0h9l1 3h-11l1-3z" fill="#D1D7D7"/>
<path transform="translate(262 74.9)" d="m0 0c1.89 0.03 1.89 0.03 3.81 0.06l-1 3h-10v-2c2.75-0.91 4.36-1.11 7.19-1.06z" fill="#C9CECE"/>
<path transform="translate(1582,249)" d="m0 0h1v6l-2-1 1-5z" fill="#787E7B"/>
<path transform="translate(985,90)" d="m0 0h1v9h-1v-9z" fill="#0A0C0C"/>
<path transform="translate(941,101)" d="m0 0h7v1h-7v-1z" fill="#787E7B"/>
<path transform="translate(1322,16)" d="m0 0h7v1h-7v-1z" fill="#848A88"/>
<path transform="translate(1340,15)" d="m0 0h7v1h-7v-1z" fill="#848A88"/>
<path transform="translate(639,500)" d="m0 0 2 2-1 3-1-5z" fill="#0C0E0E"/>
<path transform="translate(1,136)" d="m0 0h1v6h-1v-6z" fill="#8E9391"/>
<path transform="translate(760,125)" d="m0 0c1.98 0.5 1.98 0.5 4 1l-5 1 1-2z" fill="#787E7B"/>
<path transform="translate(382,570)" d="m0 0h1v5h-1v-5z" fill="#0A0D0D"/>
<path transform="translate(1255,417)" d="m0 0 2 4-2-1v-3z" fill="#1D201E"/>
<path transform="translate(904,194)" d="m0 0h5v1h-5v-1z" fill="#020204"/>
<path transform="translate(1576,139)" d="m0 0h1v5h-1v-5z" fill="#181B19"/>
<path transform="translate(960,36)" d="m0 0h5v1h-5v-1z" fill="#898F8D"/>
<path transform="translate(1009,605)" d="m0 0 1 4z" fill="#050607"/>
<path transform="translate(993,508)" d="m0 0 1 4z" fill="#000002"/>
<path transform="translate(799,488)" d="m0 0 1 4z" fill="#0A0D0D"/>
<path transform="translate(464,444)" d="m0 0 1 4z" fill="#0A0D0D"/>
<path transform="translate(795,415)" d="m0 0 1 4z" fill="#0A0D0D"/>
<path transform="translate(1581,230)" d="m0 0 1 4z" fill="#0A0D0D"/>
<path transform="translate(6,228)" d="m0 0 1 4z" fill="#787E7B"/>
<path transform="translate(1096,163)" d="m0 0 1 4z" fill="#0A0D0D"/>
<path transform="translate(1240,162)" d="m0 0 1 4z" fill="#2D322D"/>
<path transform="translate(419,142)" d="m0 0 1 4z" fill="#0A0D0D"/>
<path transform="translate(1571,49)" d="m0 0 1 4z" fill="#0A0D0D"/>
<path transform="translate(1225,21)" d="m0 0 4 1z" fill="#3F4540"/>
<path transform="translate(956,101)" d="m0 0 2 1z" fill="#0A0D0D"/>
</svg>
