<svg width="2478" height="1033" viewBox="0 0 2478 1033" fill="none" xmlns="http://www.w3.org/2000/svg">
<mask id="path-1-outside-1_194_2" maskUnits="userSpaceOnUse" x="-0.747199" y="-0.3211" width="2479.76" height="1033.99" fill="black">
<rect fill="white" x="-0.747199" y="-0.3211" width="2479.76" height="1033.99"/>
<path d="M468.342 114.9L489.676 503.715L368.308 510.375L357.672 316.516L308.448 513.659L204.105 519.384L133.609 328.81L144.245 522.668L22.3288 529.358L0.995302 140.543L150.371 132.347L248.848 361.045L319.516 123.066L468.342 114.9ZM642.525 105.343L654.548 324.464C655.532 342.403 660.16 356.471 668.431 366.666C677.048 376.476 690.143 380.898 707.716 379.934C725.29 378.97 738.006 373.131 745.864 362.418C753.702 351.338 757.129 336.829 756.145 318.889L744.122 99.7688L865.49 93.1096L877.512 312.23C879.541 349.208 873.59 381.299 859.66 408.503C845.709 435.341 825.732 456.083 799.729 470.729C773.726 485.376 744.249 493.603 711.298 495.411C678.348 497.219 648.697 492.236 622.346 480.462C596.36 468.668 575.516 450.166 559.811 424.955C544.106 399.744 535.229 368.467 533.18 331.123L521.157 112.002L642.525 105.343ZM1091.74 474.537C1045.24 477.088 1006.21 468.397 974.634 448.464C943.407 428.144 925.358 397.003 920.485 355.04L1050.09 347.929C1053.15 370.162 1063.64 380.786 1081.58 379.801C1088.17 379.44 1093.58 377.674 1097.82 374.504C1102.4 370.948 1104.5 365.875 1104.14 359.285C1103.64 350.132 1098.3 343.081 1088.11 338.131C1077.9 332.816 1062.17 327.069 1040.89 320.892C1015.52 313.471 994.359 306.002 977.422 298.486C960.851 290.949 946.265 279.447 933.666 263.981C921.066 248.515 914.256 228.141 913.236 202.859C911.85 177.597 917.082 155.827 928.932 137.551C941.128 118.888 958.141 104.367 979.972 93.9889C1002.17 83.5906 1027.36 77.618 1055.55 76.0712C1103.15 73.4598 1141.46 82.3742 1170.49 102.814C1199.89 123.235 1216.41 153.358 1220.07 193.184L1088.81 200.386C1087.85 189.422 1084.67 181.702 1079.28 177.223C1073.89 172.745 1067.54 170.707 1060.22 171.108C1055.09 171.39 1050.98 173.451 1047.89 177.293C1044.77 180.769 1043.39 185.619 1043.73 191.843C1044.21 200.63 1049.37 207.691 1059.21 213.026C1069.4 217.976 1085.33 223.895 1107.01 230.785C1132.04 238.592 1152.66 246.274 1168.86 253.831C1185.43 261.367 1199.99 272.32 1212.53 286.688C1225.07 301.056 1231.96 319.589 1233.21 342.288C1234.51 366.086 1229.83 387.825 1219.16 407.506C1208.47 426.821 1192.25 442.399 1170.49 454.242C1148.74 466.085 1122.49 472.85 1091.74 474.537ZM1388.56 161.906L1391.18 209.685L1512 203.056L1517.03 294.768L1396.21 301.397L1399.22 356.314L1536.52 348.781L1541.85 445.985L1282.64 460.207L1261.31 71.392L1520.52 57.1696L1525.85 154.373L1388.56 161.906ZM1685.63 48.11L1697.66 267.23C1698.64 285.17 1703.27 299.238 1711.54 309.433C1720.16 319.243 1733.25 323.665 1750.83 322.701C1768.4 321.737 1781.11 315.898 1788.97 305.185C1796.81 294.105 1800.24 279.596 1799.25 261.656L1787.23 42.5356L1908.6 35.8764L1920.62 254.997C1922.65 291.975 1916.7 324.065 1902.77 351.269C1888.82 378.107 1868.84 398.85 1842.84 413.496C1816.83 428.143 1787.36 436.37 1754.41 438.178C1721.46 439.986 1691.81 435.003 1665.45 423.229C1639.47 411.435 1618.62 392.932 1602.92 367.722C1587.21 342.511 1578.34 311.233 1576.29 273.89L1564.27 54.7692L1685.63 48.11ZM2428.53 7.34895L2449.86 396.164L2328.49 402.823L2317.86 208.965L2268.63 406.108L2164.29 411.833L2093.8 221.259L2104.43 415.117L1982.52 421.806L1961.18 32.9913L2110.56 24.7954L2209.03 253.494L2279.7 15.5147L2428.53 7.34895ZM284.912 1019.56C238.416 1022.11 199.381 1013.42 167.808 993.485C136.581 973.165 118.531 942.024 113.658 900.061L243.264 892.95C246.319 915.182 256.817 925.807 274.757 924.822C281.347 924.461 286.758 922.695 290.991 919.525C295.57 915.969 297.678 910.896 297.317 904.306C296.815 895.153 291.47 888.101 281.284 883.152C271.077 877.837 255.339 872.09 234.069 865.913C208.691 858.492 187.533 851.023 170.596 843.507C154.025 835.97 139.439 824.468 126.84 809.002C114.24 793.536 107.43 773.162 106.41 747.879C105.024 722.617 110.256 700.848 122.106 682.571C134.302 663.909 151.315 649.388 173.146 639.01C195.343 628.611 220.537 622.639 248.728 621.092C296.323 618.481 334.636 627.395 363.666 647.835C393.062 668.256 409.587 698.379 413.241 738.205L281.988 745.407C281.02 734.443 277.842 726.722 272.455 722.244C267.068 717.766 260.714 715.728 253.392 716.129C248.266 716.411 244.156 718.472 241.062 722.314C237.948 725.79 236.561 730.64 236.903 736.864C237.385 745.651 242.546 752.712 252.387 758.047C262.573 762.997 278.505 768.916 300.181 775.806C325.213 783.613 345.832 791.295 362.037 798.851C378.608 806.388 393.163 817.341 405.702 831.709C418.242 846.076 425.134 864.61 426.38 887.309C427.685 911.107 423.003 932.846 412.331 952.527C401.64 971.842 385.419 987.42 363.669 999.263C341.918 1011.11 315.666 1017.87 284.912 1019.56ZM581.731 706.927L584.352 754.705L705.17 748.076L710.202 839.788L589.384 846.418L592.397 901.335L729.691 893.802L735.024 991.006L475.814 1005.23L454.481 616.413L713.691 602.191L719.024 699.394L581.731 706.927ZM1226.98 574.027L1248.32 962.842L1126.95 969.502L1116.31 775.643L1067.09 972.786L962.747 978.511L892.25 787.937L902.887 981.795L780.97 988.485L759.637 599.67L909.012 591.474L1007.49 820.172L1078.16 582.193L1226.98 574.027ZM1409.25 661.523L1411.87 709.301L1532.69 702.672L1537.72 794.384L1416.9 801.014L1419.91 855.931L1557.21 848.398L1562.54 945.602L1303.33 959.824L1282 571.009L1541.21 556.787L1546.54 653.99L1409.25 661.523ZM1749.16 545.377C1789.8 543.147 1825.76 549.436 1857.05 564.244C1888.71 579.032 1913.58 600.618 1931.66 629.004C1949.75 657.389 1959.81 690.253 1961.86 727.597C1963.89 764.575 1957.48 798.344 1942.63 828.903C1927.78 859.462 1905.45 884.189 1875.65 903.084C1846.18 921.593 1811.13 931.962 1770.49 934.192L1608.49 943.081L1587.15 554.266L1749.16 545.377ZM1753.54 826.058C1781 824.551 1802.37 815.851 1817.66 799.956C1832.94 784.062 1839.82 762.202 1838.3 734.377C1836.77 706.552 1827.54 685.576 1810.61 671.449C1793.67 657.323 1771.48 651.012 1744.02 652.519L1714.91 654.116L1724.44 827.655L1753.54 826.058ZM2206.29 914.136C2169.68 916.145 2135.52 909.39 2103.82 893.87C2072.49 878.329 2047.02 855.858 2027.42 826.454C2007.81 797.051 1996.96 763.311 1994.87 725.235C1992.78 687.159 1999.87 652.435 2016.15 621.063C2032.42 589.691 2055.29 564.751 2084.75 546.242C2114.56 527.348 2147.77 516.896 2184.38 514.887C2220.99 512.878 2254.96 519.644 2286.3 535.184C2317.61 550.358 2342.88 572.657 2362.13 602.08C2381.73 631.483 2392.58 665.223 2394.67 703.299C2396.76 741.375 2389.67 776.099 2373.39 807.471C2357.49 838.823 2334.63 863.946 2304.82 882.841C2275.38 901.716 2242.53 912.148 2206.29 914.136ZM2200.05 800.457C2224.21 799.132 2242.46 790.419 2254.8 774.319C2267.12 757.852 2272.55 736.439 2271.11 710.079C2269.64 683.352 2261.89 662.662 2247.87 648.009C2233.83 632.989 2214.72 626.142 2190.56 627.468C2166.03 628.813 2147.61 637.719 2135.29 654.186C2122.95 670.286 2117.52 691.699 2118.98 718.425C2120.43 744.786 2128.18 765.476 2142.22 780.496C2156.24 795.149 2175.52 801.803 2200.05 800.457Z"/>
</mask>
<path d="M468.342 114.9L489.676 503.715L368.308 510.375L357.672 316.516L308.448 513.659L204.105 519.384L133.609 328.81L144.245 522.668L22.3288 529.358L0.995302 140.543L150.371 132.347L248.848 361.045L319.516 123.066L468.342 114.9ZM642.525 105.343L654.548 324.464C655.532 342.403 660.16 356.471 668.431 366.666C677.048 376.476 690.143 380.898 707.716 379.934C725.29 378.97 738.006 373.131 745.864 362.418C753.702 351.338 757.129 336.829 756.145 318.889L744.122 99.7688L865.49 93.1096L877.512 312.23C879.541 349.208 873.59 381.299 859.66 408.503C845.709 435.341 825.732 456.083 799.729 470.729C773.726 485.376 744.249 493.603 711.298 495.411C678.348 497.219 648.697 492.236 622.346 480.462C596.36 468.668 575.516 450.166 559.811 424.955C544.106 399.744 535.229 368.467 533.18 331.123L521.157 112.002L642.525 105.343ZM1091.74 474.537C1045.24 477.088 1006.21 468.397 974.634 448.464C943.407 428.144 925.358 397.003 920.485 355.04L1050.09 347.929C1053.15 370.162 1063.64 380.786 1081.58 379.801C1088.17 379.44 1093.58 377.674 1097.82 374.504C1102.4 370.948 1104.5 365.875 1104.14 359.285C1103.64 350.132 1098.3 343.081 1088.11 338.131C1077.9 332.816 1062.17 327.069 1040.89 320.892C1015.52 313.471 994.359 306.002 977.422 298.486C960.851 290.949 946.265 279.447 933.666 263.981C921.066 248.515 914.256 228.141 913.236 202.859C911.85 177.597 917.082 155.827 928.932 137.551C941.128 118.888 958.141 104.367 979.972 93.9889C1002.17 83.5906 1027.36 77.618 1055.55 76.0712C1103.15 73.4598 1141.46 82.3742 1170.49 102.814C1199.89 123.235 1216.41 153.358 1220.07 193.184L1088.81 200.386C1087.85 189.422 1084.67 181.702 1079.28 177.223C1073.89 172.745 1067.54 170.707 1060.22 171.108C1055.09 171.39 1050.98 173.451 1047.89 177.293C1044.77 180.769 1043.39 185.619 1043.73 191.843C1044.21 200.63 1049.37 207.691 1059.21 213.026C1069.4 217.976 1085.33 223.895 1107.01 230.785C1132.04 238.592 1152.66 246.274 1168.86 253.831C1185.43 261.367 1199.99 272.32 1212.53 286.688C1225.07 301.056 1231.96 319.589 1233.21 342.288C1234.51 366.086 1229.83 387.825 1219.16 407.506C1208.47 426.821 1192.25 442.399 1170.49 454.242C1148.74 466.085 1122.49 472.85 1091.74 474.537ZM1388.56 161.906L1391.18 209.685L1512 203.056L1517.03 294.768L1396.21 301.397L1399.22 356.314L1536.52 348.781L1541.85 445.985L1282.64 460.207L1261.31 71.392L1520.52 57.1696L1525.85 154.373L1388.56 161.906ZM1685.63 48.11L1697.66 267.23C1698.64 285.17 1703.27 299.238 1711.54 309.433C1720.16 319.243 1733.25 323.665 1750.83 322.701C1768.4 321.737 1781.11 315.898 1788.97 305.185C1796.81 294.105 1800.24 279.596 1799.25 261.656L1787.23 42.5356L1908.6 35.8764L1920.62 254.997C1922.65 291.975 1916.7 324.065 1902.77 351.269C1888.82 378.107 1868.84 398.85 1842.84 413.496C1816.83 428.143 1787.36 436.37 1754.41 438.178C1721.46 439.986 1691.81 435.003 1665.45 423.229C1639.47 411.435 1618.62 392.932 1602.92 367.722C1587.21 342.511 1578.34 311.233 1576.29 273.89L1564.27 54.7692L1685.63 48.11ZM2428.53 7.34895L2449.86 396.164L2328.49 402.823L2317.86 208.965L2268.63 406.108L2164.29 411.833L2093.8 221.259L2104.43 415.117L1982.52 421.806L1961.18 32.9913L2110.56 24.7954L2209.03 253.494L2279.7 15.5147L2428.53 7.34895ZM284.912 1019.56C238.416 1022.11 199.381 1013.42 167.808 993.485C136.581 973.165 118.531 942.024 113.658 900.061L243.264 892.95C246.319 915.182 256.817 925.807 274.757 924.822C281.347 924.461 286.758 922.695 290.991 919.525C295.57 915.969 297.678 910.896 297.317 904.306C296.815 895.153 291.47 888.101 281.284 883.152C271.077 877.837 255.339 872.09 234.069 865.913C208.691 858.492 187.533 851.023 170.596 843.507C154.025 835.97 139.439 824.468 126.84 809.002C114.24 793.536 107.43 773.162 106.41 747.879C105.024 722.617 110.256 700.848 122.106 682.571C134.302 663.909 151.315 649.388 173.146 639.01C195.343 628.611 220.537 622.639 248.728 621.092C296.323 618.481 334.636 627.395 363.666 647.835C393.062 668.256 409.587 698.379 413.241 738.205L281.988 745.407C281.02 734.443 277.842 726.722 272.455 722.244C267.068 717.766 260.714 715.728 253.392 716.129C248.266 716.411 244.156 718.472 241.062 722.314C237.948 725.79 236.561 730.64 236.903 736.864C237.385 745.651 242.546 752.712 252.387 758.047C262.573 762.997 278.505 768.916 300.181 775.806C325.213 783.613 345.832 791.295 362.037 798.851C378.608 806.388 393.163 817.341 405.702 831.709C418.242 846.076 425.134 864.61 426.38 887.309C427.685 911.107 423.003 932.846 412.331 952.527C401.64 971.842 385.419 987.42 363.669 999.263C341.918 1011.11 315.666 1017.87 284.912 1019.56ZM581.731 706.927L584.352 754.705L705.17 748.076L710.202 839.788L589.384 846.418L592.397 901.335L729.691 893.802L735.024 991.006L475.814 1005.23L454.481 616.413L713.691 602.191L719.024 699.394L581.731 706.927ZM1226.98 574.027L1248.32 962.842L1126.95 969.502L1116.31 775.643L1067.09 972.786L962.747 978.511L892.25 787.937L902.887 981.795L780.97 988.485L759.637 599.67L909.012 591.474L1007.49 820.172L1078.16 582.193L1226.98 574.027ZM1409.25 661.523L1411.87 709.301L1532.69 702.672L1537.72 794.384L1416.9 801.014L1419.91 855.931L1557.21 848.398L1562.54 945.602L1303.33 959.824L1282 571.009L1541.21 556.787L1546.54 653.99L1409.25 661.523ZM1749.16 545.377C1789.8 543.147 1825.76 549.436 1857.05 564.244C1888.71 579.032 1913.58 600.618 1931.66 629.004C1949.75 657.389 1959.81 690.253 1961.86 727.597C1963.89 764.575 1957.48 798.344 1942.63 828.903C1927.78 859.462 1905.45 884.189 1875.65 903.084C1846.18 921.593 1811.13 931.962 1770.49 934.192L1608.49 943.081L1587.15 554.266L1749.16 545.377ZM1753.54 826.058C1781 824.551 1802.37 815.851 1817.66 799.956C1832.94 784.062 1839.82 762.202 1838.3 734.377C1836.77 706.552 1827.54 685.576 1810.61 671.449C1793.67 657.323 1771.48 651.012 1744.02 652.519L1714.91 654.116L1724.44 827.655L1753.54 826.058ZM2206.29 914.136C2169.68 916.145 2135.52 909.39 2103.82 893.87C2072.49 878.329 2047.02 855.858 2027.42 826.454C2007.81 797.051 1996.96 763.311 1994.87 725.235C1992.78 687.159 1999.87 652.435 2016.15 621.063C2032.42 589.691 2055.29 564.751 2084.75 546.242C2114.56 527.348 2147.77 516.896 2184.38 514.887C2220.99 512.878 2254.96 519.644 2286.3 535.184C2317.61 550.358 2342.88 572.657 2362.13 602.08C2381.73 631.483 2392.58 665.223 2394.67 703.299C2396.76 741.375 2389.67 776.099 2373.39 807.471C2357.49 838.823 2334.63 863.946 2304.82 882.841C2275.38 901.716 2242.53 912.148 2206.29 914.136ZM2200.05 800.457C2224.21 799.132 2242.46 790.419 2254.8 774.319C2267.12 757.852 2272.55 736.439 2271.11 710.079C2269.64 683.352 2261.89 662.662 2247.87 648.009C2233.83 632.989 2214.72 626.142 2190.56 627.468C2166.03 628.813 2147.61 637.719 2135.29 654.186C2122.95 670.286 2117.52 691.699 2118.98 718.425C2120.43 744.786 2128.18 765.476 2142.22 780.496C2156.24 795.149 2175.52 801.803 2200.05 800.457Z" fill="white"/>
<path d="M468.342 114.9L469.341 114.845L469.286 113.847L468.288 113.902L468.342 114.9ZM489.676 503.715L489.731 504.714L490.729 504.659L490.674 503.661L489.676 503.715ZM368.308 510.375L367.31 510.429L367.365 511.428L368.363 511.373L368.308 510.375ZM357.672 316.516L358.67 316.461L356.702 316.274L357.672 316.516ZM308.448 513.659L308.503 514.657L309.24 514.617L309.419 513.901L308.448 513.659ZM204.105 519.384L203.167 519.731L203.423 520.423L204.16 520.383L204.105 519.384ZM133.609 328.81L134.547 328.463L132.61 328.865L133.609 328.81ZM144.245 522.668L144.3 523.667L145.299 523.612L145.244 522.614L144.245 522.668ZM22.3288 529.358L21.3303 529.413L21.3851 530.411L22.3836 530.356L22.3288 529.358ZM0.995301 140.543L0.940516 139.544L-0.0579825 139.599L-0.00319698 140.597L0.995301 140.543ZM150.371 132.347L151.289 131.951L151.013 131.31L150.316 131.348L150.371 132.347ZM248.848 361.045L247.929 361.441L249.021 363.975L249.807 361.33L248.848 361.045ZM319.516 123.066L319.461 122.068L318.758 122.106L318.558 122.781L319.516 123.066ZM467.344 114.955L488.677 503.77L490.674 503.661L469.341 114.845L467.344 114.955ZM489.621 502.717L368.254 509.376L368.363 511.373L489.731 504.714L489.621 502.717ZM369.307 510.32L358.67 316.461L356.673 316.571L367.31 510.429L369.307 510.32ZM356.702 316.274L307.478 513.417L309.419 513.901L358.642 316.758L356.702 316.274ZM308.394 512.66L204.051 518.386L204.16 520.383L308.503 514.657L308.394 512.66ZM205.043 519.037L134.547 328.463L132.671 329.157L203.167 519.731L205.043 519.037ZM132.61 328.865L143.247 522.723L145.244 522.614L134.607 328.755L132.61 328.865ZM144.191 521.67L22.274 528.359L22.3836 530.356L144.3 523.667L144.191 521.67ZM23.3273 529.303L1.9938 140.488L-0.00319698 140.597L21.3303 529.413L23.3273 529.303ZM1.05009 141.541L150.425 133.345L150.316 131.348L0.940516 139.544L1.05009 141.541ZM149.452 132.742L247.929 361.441L249.766 360.65L151.289 131.951L149.452 132.742ZM249.807 361.33L320.475 123.351L318.558 122.781L247.889 360.76L249.807 361.33ZM319.571 124.065L468.397 115.899L468.288 113.902L319.461 122.068L319.571 124.065ZM642.525 105.343L643.523 105.288L643.469 104.29L642.47 104.345L642.525 105.343ZM668.431 366.666L667.654 367.296L667.666 367.312L667.679 367.326L668.431 366.666ZM745.864 362.418L746.67 363.009L746.676 363.002L746.68 362.995L745.864 362.418ZM744.122 99.7688L744.067 98.7703L743.069 98.8251L743.124 99.8236L744.122 99.7688ZM865.49 93.1096L866.488 93.0548L866.433 92.0563L865.435 92.1111L865.49 93.1096ZM859.66 408.503L860.547 408.964L860.55 408.958L859.66 408.503ZM799.729 470.729L800.22 471.601L799.729 470.729ZM622.346 480.462L621.932 481.373L621.938 481.375L622.346 480.462ZM559.811 424.955L558.962 425.483L559.811 424.955ZM521.157 112.002L521.103 111.004L520.104 111.059L520.159 112.057L521.157 112.002ZM641.526 105.398L653.549 324.518L655.546 324.409L643.523 105.288L641.526 105.398ZM653.549 324.518C654.541 342.592 659.209 356.887 667.654 367.296L669.207 366.036C661.11 356.055 656.523 342.214 655.546 324.409L653.549 324.518ZM667.679 367.326C676.564 377.44 690.005 381.907 707.771 380.933L707.662 378.936C690.28 379.889 677.531 375.511 669.182 366.006L667.679 367.326ZM707.771 380.933C725.54 379.958 738.582 374.037 746.67 363.009L745.058 361.826C737.43 372.225 725.04 377.982 707.662 378.936L707.771 380.933ZM746.68 362.995C754.686 351.68 758.136 336.926 757.143 318.834L755.146 318.944C756.122 336.732 752.719 350.997 745.048 361.84L746.68 362.995ZM757.143 318.834L745.121 99.714L743.124 99.8236L755.146 318.944L757.143 318.834ZM744.177 100.767L865.544 94.1081L865.435 92.1111L744.067 98.7703L744.177 100.767ZM864.491 93.1644L876.514 312.285L878.511 312.175L866.488 93.0548L864.491 93.1644ZM876.514 312.285C878.535 349.123 872.604 381.031 858.77 408.047L860.55 408.958C874.577 381.567 880.547 349.292 878.511 312.175L876.514 312.285ZM858.772 408.041C844.91 434.71 825.07 455.308 799.238 469.858L800.22 471.601C826.395 456.858 846.508 435.972 860.547 408.964L858.772 408.041ZM799.238 469.858C773.382 484.422 744.057 492.612 711.243 494.413L711.353 496.41C744.44 494.594 774.069 486.33 800.22 471.601L799.238 469.858ZM711.243 494.413C678.429 496.213 648.94 491.249 622.754 479.549L621.938 481.375C648.454 493.223 678.267 498.225 711.353 496.41L711.243 494.413ZM622.759 479.552C596.961 467.842 576.264 449.477 560.66 424.426L558.962 425.483C574.767 450.855 595.76 469.494 621.932 481.373L622.759 479.552ZM560.66 424.426C545.064 399.39 536.221 368.287 534.179 331.068L532.182 331.178C534.237 368.647 543.148 400.097 558.962 425.483L560.66 424.426ZM534.179 331.068L522.156 111.948L520.159 112.057L532.182 331.178L534.179 331.068ZM521.212 113.001L642.58 106.342L642.47 104.345L521.103 111.004L521.212 113.001ZM974.634 448.464L974.089 449.302L974.1 449.309L974.634 448.464ZM920.485 355.04L920.43 354.042L919.369 354.1L919.491 355.155L920.485 355.04ZM1050.09 347.929L1051.08 347.793L1050.95 346.88L1050.03 346.93L1050.09 347.929ZM1097.82 374.504L1098.42 375.304L1098.42 375.299L1098.43 375.294L1097.82 374.504ZM1088.11 338.131L1087.65 339.018L1087.66 339.025L1087.67 339.031L1088.11 338.131ZM1040.89 320.892L1040.61 321.852L1040.62 321.852L1040.89 320.892ZM977.422 298.486L977.008 299.396L977.016 299.4L977.422 298.486ZM933.666 263.981L934.441 263.35L933.666 263.981ZM913.236 202.859L914.236 202.818L914.235 202.811L914.235 202.804L913.236 202.859ZM928.932 137.551L928.095 137.004L928.093 137.007L928.932 137.551ZM979.972 93.9889L979.548 93.0833L979.543 93.0858L979.972 93.9889ZM1170.49 102.814L1169.92 103.632L1169.92 103.636L1170.49 102.814ZM1220.07 193.184L1220.12 194.183L1221.16 194.126L1221.06 193.093L1220.07 193.184ZM1088.81 200.386L1087.82 200.474L1087.9 201.437L1088.87 201.384L1088.81 200.386ZM1047.89 177.293L1048.63 177.961L1048.65 177.941L1048.67 177.92L1047.89 177.293ZM1059.21 213.026L1058.74 213.906L1058.76 213.916L1058.78 213.926L1059.21 213.026ZM1107.01 230.785L1106.7 231.738L1106.71 231.739L1107.01 230.785ZM1168.86 253.831L1168.44 254.737L1168.45 254.741L1168.86 253.831ZM1212.53 286.688L1211.78 287.345L1212.53 286.688ZM1219.16 407.506L1220.03 407.99L1220.04 407.983L1219.16 407.506ZM1170.49 454.242L1170.02 453.364L1170.49 454.242ZM1091.68 473.539C1045.34 476.081 1006.53 467.416 975.168 447.618L974.1 449.309C1005.89 469.378 1045.14 478.096 1091.79 475.536L1091.68 473.539ZM975.18 447.626C944.237 427.491 926.322 396.636 921.478 354.925L919.491 355.155C924.393 397.369 942.577 428.797 974.089 449.302L975.18 447.626ZM920.539 356.039L1050.14 348.927L1050.03 346.93L920.43 354.042L920.539 356.039ZM1049.1 348.065C1050.64 359.293 1054.08 367.749 1059.54 373.274C1065.03 378.831 1072.45 381.304 1081.64 380.8L1081.53 378.803C1072.78 379.283 1065.97 376.936 1060.97 371.869C1055.93 366.77 1052.59 358.797 1051.08 347.793L1049.1 348.065ZM1081.64 380.8C1088.38 380.43 1093.99 378.619 1098.42 375.304L1097.22 373.704C1093.18 376.729 1087.97 378.449 1081.53 378.803L1081.64 380.8ZM1098.43 375.294C1103.31 371.506 1105.52 366.095 1105.14 359.23L1103.14 359.339C1103.49 365.654 1101.48 370.39 1097.2 373.714L1098.43 375.294ZM1105.14 359.23C1104.61 349.624 1098.97 342.296 1088.55 337.232L1087.67 339.031C1097.62 343.865 1102.67 350.64 1103.14 359.339L1105.14 359.23ZM1088.57 337.244C1078.28 331.882 1062.46 326.114 1041.17 319.932L1040.62 321.852C1061.87 328.025 1077.53 333.749 1087.65 339.018L1088.57 337.244ZM1041.18 319.932C1015.82 312.519 994.711 305.065 977.827 297.572L977.016 299.4C994.007 306.94 1015.21 314.423 1040.61 321.852L1041.18 319.932ZM977.836 297.576C961.418 290.108 946.953 278.708 934.441 263.35L932.89 264.613C945.578 280.187 960.283 291.79 977.008 299.396L977.836 297.576ZM934.441 263.35C922.011 248.091 915.249 227.943 914.236 202.818L912.237 202.899C913.263 228.339 920.121 248.938 932.89 264.613L934.441 263.35ZM914.235 202.804C912.858 177.718 918.054 156.166 929.771 138.095L928.093 137.007C916.11 155.488 910.842 177.475 912.238 202.913L914.235 202.804ZM929.769 138.098C941.856 119.602 958.722 105.198 980.402 94.8921L979.543 93.0858C957.56 103.536 940.4 118.174 928.095 137.004L929.769 138.098ZM980.396 94.8945C1002.46 84.5581 1027.53 78.6105 1055.61 77.0697L1055.5 75.0727C1027.2 76.6255 1001.88 82.623 979.548 93.0834L980.396 94.8945ZM1055.61 77.0697C1103.06 74.4664 1141.12 83.3595 1169.92 103.632L1171.07 101.997C1141.8 81.3889 1103.24 72.4532 1055.5 75.0727L1055.61 77.0697ZM1169.92 103.636C1199.04 123.866 1215.44 153.705 1219.07 193.276L1221.06 193.093C1217.39 153.011 1200.73 122.603 1171.06 101.993L1169.92 103.636ZM1220.01 192.186L1088.76 199.387L1088.87 201.384L1220.12 194.183L1220.01 192.186ZM1089.81 200.298C1088.83 189.216 1085.6 181.179 1079.92 176.454L1078.64 177.992C1083.73 182.225 1086.86 189.629 1087.82 200.474L1089.81 200.298ZM1079.92 176.454C1074.33 171.806 1067.72 169.695 1060.16 170.11L1060.27 172.107C1067.36 171.718 1073.46 173.683 1078.64 177.992L1079.92 176.454ZM1060.16 170.11C1054.77 170.406 1050.39 172.593 1047.11 176.666L1048.67 177.92C1051.58 174.309 1055.42 172.373 1060.27 172.107L1060.16 170.11ZM1047.14 176.626C1043.8 180.359 1042.38 185.501 1042.73 191.898L1044.73 191.788C1044.4 185.737 1045.75 181.18 1048.63 177.961L1047.14 176.626ZM1042.73 191.898C1043.24 201.127 1048.69 208.456 1058.74 213.906L1059.69 212.147C1050.06 206.926 1045.19 200.132 1044.73 191.788L1042.73 191.898ZM1058.78 213.926C1069.03 218.908 1085.02 224.845 1106.7 231.738L1107.31 229.832C1085.64 222.945 1069.77 217.044 1059.65 212.127L1058.78 213.926ZM1106.71 231.739C1131.72 239.539 1152.29 247.205 1168.44 254.737L1169.29 252.924C1153.03 245.342 1132.36 237.645 1107.31 229.83L1106.71 231.739ZM1168.45 254.741C1184.88 262.216 1199.33 273.079 1211.78 287.345L1213.28 286.03C1200.65 271.56 1185.98 260.519 1169.28 252.92L1168.45 254.741ZM1211.78 287.345C1224.14 301.515 1230.97 319.822 1232.21 342.343L1234.2 342.234C1232.95 319.356 1225.99 300.597 1213.28 286.03L1211.78 287.345ZM1232.21 342.343C1233.5 365.968 1228.86 387.522 1218.28 407.029L1220.04 407.983C1230.8 388.128 1235.52 366.203 1234.2 342.234L1232.21 342.343ZM1218.28 407.022C1207.69 426.15 1191.62 441.601 1170.02 453.364L1170.97 455.12C1192.87 443.198 1209.24 427.491 1220.03 407.99L1218.28 407.022ZM1170.02 453.364C1148.42 465.12 1122.32 471.858 1091.68 473.539L1091.79 475.536C1122.66 473.842 1149.06 467.049 1170.97 455.12L1170.02 453.364ZM1388.56 161.906L1388.5 160.908L1387.5 160.963L1387.56 161.961L1388.56 161.906ZM1391.18 209.685L1390.18 209.739L1390.23 210.738L1391.23 210.683L1391.18 209.685ZM1512 203.056L1512.99 203.001L1512.94 202.002L1511.94 202.057L1512 203.056ZM1517.03 294.768L1517.08 295.766L1518.08 295.711L1518.03 294.713L1517.03 294.768ZM1396.21 301.397L1396.16 300.398L1395.16 300.453L1395.21 301.451L1396.21 301.397ZM1399.22 356.314L1398.22 356.369L1398.28 357.367L1399.28 357.313L1399.22 356.314ZM1536.52 348.781L1537.52 348.726L1537.46 347.728L1536.46 347.783L1536.52 348.781ZM1541.85 445.985L1541.91 446.983L1542.9 446.929L1542.85 445.93L1541.85 445.985ZM1282.64 460.207L1281.64 460.262L1281.7 461.26L1282.69 461.206L1282.64 460.207ZM1261.31 71.392L1261.25 70.3935L1260.25 70.4482L1260.31 71.4467L1261.31 71.392ZM1520.52 57.1697L1521.52 57.1149L1521.46 56.1164L1520.46 56.1712L1520.52 57.1697ZM1525.85 154.373L1525.9 155.372L1526.9 155.317L1526.85 154.319L1525.85 154.373ZM1387.56 161.961L1390.18 209.739L1392.18 209.63L1389.56 161.852L1387.56 161.961ZM1391.23 210.683L1512.05 204.054L1511.94 202.057L1391.12 208.686L1391.23 210.683ZM1511 203.11L1516.03 294.822L1518.03 294.713L1512.99 203.001L1511 203.11ZM1516.97 293.769L1396.16 300.398L1396.26 302.395L1517.08 295.766L1516.97 293.769ZM1395.21 301.451L1398.22 356.369L1400.22 356.259L1397.21 301.342L1395.21 301.451ZM1399.28 357.313L1536.57 349.78L1536.46 347.783L1399.17 355.316L1399.28 357.313ZM1535.52 348.836L1540.85 446.04L1542.85 445.93L1537.52 348.726L1535.52 348.836ZM1541.8 444.986L1282.59 459.209L1282.69 461.206L1541.91 446.983L1541.8 444.986ZM1283.64 460.152L1262.31 71.3372L1260.31 71.4467L1281.64 460.262L1283.64 460.152ZM1261.36 72.3905L1520.57 58.1682L1520.46 56.1712L1261.25 70.3935L1261.36 72.3905ZM1519.52 57.2244L1524.85 154.428L1526.85 154.319L1521.52 57.1149L1519.52 57.2244ZM1525.8 153.375L1388.5 160.908L1388.61 162.905L1525.9 155.372L1525.8 153.375ZM1685.63 48.11L1686.63 48.0553L1686.58 47.0568L1685.58 47.1115L1685.63 48.11ZM1711.54 309.433L1710.76 310.063L1710.78 310.078L1710.79 310.093L1711.54 309.433ZM1788.97 305.185L1789.78 305.776L1789.78 305.769L1789.79 305.762L1788.97 305.185ZM1787.23 42.5356L1787.18 41.5371L1786.18 41.5919L1786.23 42.5904L1787.23 42.5356ZM1908.6 35.8764L1909.6 35.8217L1909.54 34.8232L1908.54 34.8779L1908.6 35.8764ZM1902.77 351.269L1903.66 351.731L1903.66 351.725L1902.77 351.269ZM1842.84 413.496L1843.33 414.368L1842.84 413.496ZM1665.45 423.229L1665.04 424.14L1665.05 424.142L1665.45 423.229ZM1602.92 367.722L1602.07 368.25L1602.92 367.722ZM1564.27 54.7692L1564.21 53.7707L1563.21 53.8255L1563.27 54.824L1564.27 54.7692ZM1684.64 48.1648L1696.66 267.285L1698.65 267.176L1686.63 48.0553L1684.64 48.1648ZM1696.66 267.285C1697.65 285.359 1702.32 299.654 1710.76 310.063L1712.32 308.803C1704.22 298.822 1699.63 284.981 1698.65 267.176L1696.66 267.285ZM1710.79 310.093C1719.67 320.207 1733.11 324.674 1750.88 323.699L1750.77 321.702C1733.39 322.656 1720.64 318.278 1712.29 308.773L1710.79 310.093ZM1750.88 323.699C1768.65 322.724 1781.69 316.804 1789.78 305.776L1788.17 304.593C1780.54 314.992 1768.15 320.749 1750.77 321.702L1750.88 323.699ZM1789.79 305.762C1797.79 294.447 1801.24 279.693 1800.25 261.601L1798.26 261.711C1799.23 279.498 1795.83 293.764 1788.16 304.607L1789.79 305.762ZM1800.25 261.601L1788.23 42.4808L1786.23 42.5904L1798.26 261.711L1800.25 261.601ZM1787.29 43.5341L1908.65 36.8749L1908.54 34.8779L1787.18 41.5371L1787.29 43.5341ZM1907.6 35.9312L1919.62 255.052L1921.62 254.942L1909.6 35.8217L1907.6 35.9312ZM1919.62 255.052C1921.64 291.89 1915.71 323.798 1901.88 350.814L1903.66 351.725C1917.69 324.333 1923.66 292.059 1921.62 254.942L1919.62 255.052ZM1901.88 350.808C1888.02 377.476 1868.18 398.075 1842.35 412.625L1843.33 414.368C1869.5 399.624 1889.62 378.738 1903.66 351.731L1901.88 350.808ZM1842.35 412.625C1816.49 427.189 1787.17 435.379 1754.35 437.18L1754.46 439.177C1787.55 437.361 1817.18 429.097 1843.33 414.368L1842.35 412.625ZM1754.35 437.18C1721.54 438.98 1692.05 434.016 1665.86 422.316L1665.05 424.142C1691.56 435.99 1721.38 440.992 1754.46 439.177L1754.35 437.18ZM1665.87 422.318C1640.07 410.609 1619.37 392.243 1603.77 367.193L1602.07 368.25C1617.88 393.621 1638.87 412.26 1665.04 424.14L1665.87 422.318ZM1603.77 367.193C1588.17 342.157 1579.33 311.053 1577.29 273.835L1575.29 273.944C1577.35 311.414 1586.26 342.864 1602.07 368.25L1603.77 367.193ZM1577.29 273.835L1565.26 54.7144L1563.27 54.824L1575.29 273.944L1577.29 273.835ZM1564.32 55.7677L1685.69 49.1085L1685.58 47.1115L1564.21 53.7707L1564.32 55.7677ZM2428.53 7.34895L2429.53 7.29417L2429.47 6.29567L2428.47 6.35046L2428.53 7.34895ZM2449.86 396.164L2449.92 397.163L2450.92 397.108L2450.86 396.109L2449.86 396.164ZM2328.49 402.823L2327.5 402.878L2327.55 403.877L2328.55 403.822L2328.49 402.823ZM2317.86 208.965L2318.86 208.91L2316.89 208.723L2317.86 208.965ZM2268.63 406.108L2268.69 407.106L2269.43 407.066L2269.61 406.35L2268.63 406.108ZM2164.29 411.833L2163.35 412.18L2163.61 412.872L2164.35 412.831L2164.29 411.833ZM2093.8 221.259L2094.73 220.912L2092.8 221.314L2093.8 221.259ZM2104.43 415.117L2104.49 416.116L2105.49 416.061L2105.43 415.062L2104.43 415.117ZM1982.52 421.806L1981.52 421.861L1981.57 422.86L1982.57 422.805L1982.52 421.806ZM1961.18 32.9913L1961.13 31.9928L1960.13 32.0476L1960.18 33.0461L1961.18 32.9913ZM2110.56 24.7954L2111.48 24.3999L2111.2 23.7586L2110.5 23.7969L2110.56 24.7954ZM2209.03 253.494L2208.12 253.889L2209.21 256.424L2209.99 253.778L2209.03 253.494ZM2279.7 15.5147L2279.65 14.5162L2278.94 14.5548L2278.74 15.2301L2279.7 15.5147ZM2427.53 7.40374L2448.86 396.219L2450.86 396.109L2429.53 7.29417L2427.53 7.40374ZM2449.81 395.166L2328.44 401.825L2328.55 403.822L2449.92 397.163L2449.81 395.166ZM2329.49 402.769L2318.86 208.91L2316.86 209.02L2327.5 402.878L2329.49 402.769ZM2316.89 208.723L2267.66 405.865L2269.61 406.35L2318.83 209.207L2316.89 208.723ZM2268.58 405.109L2164.24 410.834L2164.35 412.831L2268.69 407.106L2268.58 405.109ZM2165.23 411.486L2094.73 220.912L2092.86 221.606L2163.35 412.18L2165.23 411.486ZM2092.8 221.314L2103.43 415.172L2105.43 415.062L2094.79 221.204L2092.8 221.314ZM2104.38 414.119L1982.46 420.808L1982.57 422.805L2104.49 416.116L2104.38 414.119ZM1983.51 421.752L1962.18 32.9365L1960.18 33.0461L1981.52 421.861L1983.51 421.752ZM1961.24 33.9898L2110.61 25.7939L2110.5 23.7969L1961.13 31.9928L1961.24 33.9898ZM2109.64 25.1909L2208.12 253.889L2209.95 253.098L2111.48 24.3999L2109.64 25.1909ZM2209.99 253.778L2280.66 15.7994L2278.74 15.2301L2208.08 253.209L2209.99 253.778ZM2279.76 16.5132L2428.58 8.34745L2428.47 6.35046L2279.65 14.5162L2279.76 16.5132ZM167.808 993.485L167.263 994.323L167.274 994.33L167.808 993.485ZM113.658 900.061L113.604 899.062L112.543 899.121L112.665 900.176L113.658 900.061ZM243.264 892.95L244.254 892.814L244.129 891.901L243.209 891.951L243.264 892.95ZM290.991 919.525L291.591 920.325L291.598 920.32L291.605 920.315L290.991 919.525ZM281.284 883.152L280.822 884.039L280.834 884.045L280.847 884.052L281.284 883.152ZM234.069 865.913L233.788 866.873L233.79 866.873L234.069 865.913ZM170.596 843.507L170.182 844.417L170.19 844.421L170.596 843.507ZM126.84 809.002L127.615 808.37L126.84 809.002ZM106.41 747.879L107.409 747.839L107.409 747.832L107.409 747.825L106.41 747.879ZM122.106 682.571L121.269 682.024L121.267 682.027L122.106 682.571ZM173.146 639.01L172.722 638.104L172.717 638.107L173.146 639.01ZM363.666 647.835L363.09 648.653L363.095 648.657L363.666 647.835ZM413.241 738.205L413.296 739.204L414.332 739.147L414.237 738.114L413.241 738.205ZM281.988 745.407L280.992 745.495L281.078 746.458L282.043 746.405L281.988 745.407ZM241.062 722.314L241.807 722.981L241.824 722.962L241.841 722.941L241.062 722.314ZM252.387 758.047L251.91 758.926L251.929 758.937L251.95 758.947L252.387 758.047ZM300.181 775.806L299.878 776.759L299.883 776.76L300.181 775.806ZM362.037 798.851L361.614 799.758L361.623 799.762L362.037 798.851ZM405.702 831.708L404.949 832.366L405.702 831.708ZM412.331 952.527L413.206 953.011L413.211 953.003L412.331 952.527ZM363.669 999.263L363.191 998.385L363.669 999.263ZM284.858 1018.56C238.516 1021.1 199.7 1012.44 168.342 992.639L167.274 994.33C199.062 1014.4 238.315 1023.12 284.967 1020.56L284.858 1018.56ZM168.353 992.646C137.411 972.512 119.496 941.657 114.652 899.946L112.665 900.176C117.567 942.39 135.751 973.818 167.263 994.323L168.353 992.646ZM113.713 901.059L243.318 893.948L243.209 891.951L113.604 899.062L113.713 901.059ZM242.273 893.086C243.816 904.314 247.257 912.769 252.718 918.295C258.208 923.852 265.619 926.325 274.812 925.821L274.702 923.824C265.955 924.304 259.147 921.957 254.14 916.89C249.102 911.791 245.767 903.818 244.254 892.814L242.273 893.086ZM274.812 925.821C281.55 925.451 287.165 923.64 291.591 920.325L290.392 918.725C286.352 921.75 281.144 923.47 274.702 923.824L274.812 925.821ZM291.605 920.315C296.481 916.527 298.692 911.116 298.315 904.251L296.318 904.36C296.665 910.675 294.658 915.411 290.378 918.735L291.605 920.315ZM298.315 904.251C297.788 894.645 292.143 887.317 281.721 882.253L280.847 884.052C290.797 888.886 295.841 895.661 296.318 904.36L298.315 904.251ZM281.746 882.265C271.449 876.903 255.634 871.135 234.347 864.953L233.79 866.873C255.043 873.046 270.705 878.77 280.822 884.039L281.746 882.265ZM234.349 864.953C208.997 857.54 187.885 850.086 171.001 842.593L170.19 844.421C187.181 851.961 208.384 859.444 233.788 866.873L234.349 864.953ZM171.01 842.596C154.592 835.129 140.127 823.729 127.615 808.37L126.064 809.634C138.752 825.208 153.457 836.81 170.182 844.417L171.01 842.596ZM127.615 808.37C115.185 793.112 108.423 772.964 107.409 747.839L105.411 747.92C106.437 773.359 113.295 793.959 126.064 809.634L127.615 808.37ZM107.409 747.825C106.032 722.739 111.228 701.187 122.945 683.115L121.267 682.027C109.284 700.509 104.016 722.496 105.412 747.934L107.409 747.825ZM122.943 683.119C135.03 664.623 151.896 650.219 173.575 639.913L172.717 638.107C150.734 648.557 133.574 663.195 121.269 682.024L122.943 683.119ZM173.57 639.915C195.635 629.579 220.7 623.631 248.783 622.091L248.673 620.094C220.373 621.646 195.051 627.644 172.722 638.104L173.57 639.915ZM248.783 622.091C296.23 619.487 334.298 628.38 363.09 648.653L364.241 647.018C334.973 626.41 296.416 617.474 248.673 620.094L248.783 622.091ZM363.095 648.657C392.218 668.887 408.615 698.725 412.245 738.296L414.237 738.114C410.559 698.032 393.905 667.624 364.236 647.014L363.095 648.657ZM413.186 737.207L281.934 744.408L282.043 746.405L413.296 739.204L413.186 737.207ZM282.985 745.319C282.005 734.237 278.777 726.199 273.094 721.475L271.816 723.013C276.907 727.245 280.034 734.65 280.992 745.495L282.985 745.319ZM273.094 721.475C267.504 716.827 260.898 714.716 253.337 715.131L253.446 717.128C260.53 716.739 266.633 718.704 271.816 723.013L273.094 721.475ZM253.337 715.131C247.941 715.427 243.563 717.614 240.283 721.687L241.841 722.941C244.749 719.33 248.591 717.394 253.446 717.128L253.337 715.131ZM240.317 721.647C236.973 725.379 235.553 730.522 235.904 736.919L237.901 736.809C237.569 730.758 238.923 726.2 241.807 722.981L240.317 721.647ZM235.904 736.919C236.411 746.148 241.859 753.477 251.91 758.926L252.863 757.168C243.233 751.947 238.359 745.153 237.901 736.809L235.904 736.919ZM251.95 758.947C262.204 763.929 278.192 769.866 299.878 776.759L300.484 774.853C278.817 767.966 262.942 762.064 252.824 757.148L251.95 758.947ZM299.883 776.76C324.891 784.559 345.463 792.226 361.614 799.758L362.459 797.945C346.2 790.363 325.536 782.666 300.479 774.851L299.883 776.76ZM361.623 799.762C378.058 807.237 392.499 818.1 404.949 832.366L406.456 831.051C393.827 816.581 379.158 805.54 362.451 797.941L361.623 799.762ZM404.949 832.366C417.315 846.535 424.145 864.843 425.381 887.364L427.378 887.254C426.123 864.377 419.168 845.617 406.456 831.051L404.949 832.366ZM425.381 887.364C426.677 910.989 422.03 932.543 411.452 952.05L413.211 953.003C423.976 933.149 428.693 911.224 427.378 887.254L425.381 887.364ZM411.457 952.043C400.868 971.171 384.795 986.622 363.191 998.385L364.147 1000.14C386.044 988.219 402.412 972.512 413.206 953.011L411.457 952.043ZM363.191 998.385C341.598 1010.14 315.498 1016.88 284.858 1018.56L284.967 1020.56C315.834 1018.86 342.238 1012.07 364.147 1000.14L363.191 998.385ZM581.731 706.927L581.676 705.929L580.677 705.984L580.732 706.982L581.731 706.927ZM584.352 754.705L583.354 754.76L583.408 755.759L584.407 755.704L584.352 754.705ZM705.17 748.076L706.169 748.022L706.114 747.023L705.116 747.078L705.17 748.076ZM710.202 839.789L710.257 840.787L711.256 840.732L711.201 839.734L710.202 839.789ZM589.384 846.418L589.329 845.419L588.331 845.474L588.386 846.472L589.384 846.418ZM592.397 901.335L591.399 901.39L591.454 902.388L592.452 902.333L592.397 901.335ZM729.691 893.802L730.689 893.747L730.635 892.749L729.636 892.803L729.691 893.802ZM735.024 991.006L735.079 992.004L736.077 991.949L736.023 990.951L735.024 991.006ZM475.814 1005.23L474.816 1005.28L474.87 1006.28L475.869 1006.23L475.814 1005.23ZM454.481 616.413L454.426 615.414L453.427 615.469L453.482 616.468L454.481 616.413ZM713.691 602.191L714.689 602.136L714.634 601.137L713.636 601.192L713.691 602.191ZM719.024 699.394L719.079 700.393L720.077 700.338L720.023 699.34L719.024 699.394ZM580.732 706.982L583.354 754.76L585.351 754.651L582.729 706.873L580.732 706.982ZM584.407 755.704L705.225 749.075L705.116 747.078L584.297 753.707L584.407 755.704ZM704.172 748.131L709.204 839.843L711.201 839.734L706.169 748.022L704.172 748.131ZM710.148 838.79L589.329 845.419L589.439 847.416L710.257 840.787L710.148 838.79ZM588.386 846.472L591.399 901.39L593.396 901.28L590.383 846.363L588.386 846.472ZM592.452 902.333L729.746 894.8L729.636 892.803L592.343 900.336L592.452 902.333ZM728.692 893.857L734.026 991.061L736.023 990.951L730.689 893.747L728.692 893.857ZM734.969 990.007L475.759 1004.23L475.869 1006.23L735.079 992.004L734.969 990.007ZM476.813 1005.17L455.479 616.358L453.482 616.468L474.816 1005.28L476.813 1005.17ZM454.535 617.411L713.745 603.189L713.636 601.192L454.426 615.414L454.535 617.411ZM712.692 602.245L718.026 699.449L720.023 699.34L714.689 602.136L712.692 602.245ZM718.969 698.396L581.676 705.929L581.785 707.926L719.079 700.393L718.969 698.396ZM1226.98 574.027L1227.98 573.972L1227.93 572.974L1226.93 573.029L1226.98 574.027ZM1248.32 962.842L1248.37 963.841L1249.37 963.786L1249.32 962.788L1248.32 962.842ZM1126.95 969.502L1125.95 969.556L1126.01 970.555L1127 970.5L1126.95 969.502ZM1116.31 775.643L1117.31 775.588L1115.34 775.401L1116.31 775.643ZM1067.09 972.786L1067.14 973.784L1067.88 973.744L1068.06 973.028L1067.09 972.786ZM962.747 978.511L961.809 978.858L962.065 979.55L962.802 979.51L962.747 978.511ZM892.25 787.937L893.188 787.59L891.252 787.992L892.25 787.937ZM902.887 981.795L902.942 982.794L903.94 982.739L903.885 981.741L902.887 981.795ZM780.97 988.485L779.972 988.54L780.027 989.538L781.025 989.483L780.97 988.485ZM759.637 599.67L759.582 598.671L758.584 598.726L758.638 599.724L759.637 599.67ZM909.012 591.474L909.931 591.078L909.654 590.437L908.957 590.475L909.012 591.474ZM1007.49 820.172L1006.57 820.568L1007.66 823.102L1008.45 820.457L1007.49 820.172ZM1078.16 582.193L1078.1 581.194L1077.4 581.233L1077.2 581.908L1078.16 582.193ZM1225.99 574.082L1247.32 962.897L1249.32 962.788L1227.98 573.972L1225.99 574.082ZM1248.26 961.844L1126.9 968.503L1127 970.5L1248.37 963.841L1248.26 961.844ZM1127.95 969.447L1117.31 775.588L1115.31 775.698L1125.95 969.556L1127.95 969.447ZM1115.34 775.401L1066.12 972.544L1068.06 973.028L1117.28 775.885L1115.34 775.401ZM1067.04 971.787L962.692 977.513L962.802 979.51L1067.14 973.784L1067.04 971.787ZM963.685 978.164L893.188 787.59L891.312 788.284L961.809 978.858L963.685 978.164ZM891.252 787.992L901.888 981.85L903.885 981.741L893.249 787.882L891.252 787.992ZM902.832 980.797L780.915 987.486L781.025 989.483L902.942 982.794L902.832 980.797ZM781.969 988.43L760.635 599.615L758.638 599.724L779.972 988.54L781.969 988.43ZM759.692 600.668L909.067 592.472L908.957 590.475L759.582 598.671L759.692 600.668ZM908.094 591.869L1006.57 820.568L1008.41 819.777L909.931 591.078L908.094 591.869ZM1008.45 820.457L1079.12 582.478L1077.2 581.908L1006.53 819.887L1008.45 820.457ZM1078.21 583.191L1227.04 575.026L1226.93 573.029L1078.1 581.194L1078.21 583.191ZM1409.25 661.523L1409.19 660.525L1408.19 660.58L1408.25 661.578L1409.25 661.523ZM1411.87 709.301L1410.87 709.356L1410.92 710.355L1411.92 710.3L1411.87 709.301ZM1532.69 702.672L1533.68 702.618L1533.63 701.619L1532.63 701.674L1532.69 702.672ZM1537.72 794.385L1537.77 795.383L1538.77 795.328L1538.72 794.33L1537.72 794.385ZM1416.9 801.014L1416.84 800.015L1415.85 800.07L1415.9 801.068L1416.9 801.014ZM1419.91 855.931L1418.91 855.986L1418.97 856.984L1419.97 856.929L1419.91 855.931ZM1557.21 848.398L1558.2 848.343L1558.15 847.345L1557.15 847.399L1557.21 848.398ZM1562.54 945.602L1562.59 946.6L1563.59 946.545L1563.54 945.547L1562.54 945.602ZM1303.33 959.824L1302.33 959.879L1302.39 960.877L1303.38 960.823L1303.33 959.824ZM1282 571.009L1281.94 570.01L1280.94 570.065L1281 571.064L1282 571.009ZM1541.21 556.787L1542.2 556.732L1542.15 555.733L1541.15 555.788L1541.21 556.787ZM1546.54 653.99L1546.59 654.989L1547.59 654.934L1547.54 653.936L1546.54 653.99ZM1408.25 661.578L1410.87 709.356L1412.87 709.247L1410.24 661.469L1408.25 661.578ZM1411.92 710.3L1532.74 703.671L1532.63 701.674L1411.81 708.303L1411.92 710.3ZM1531.69 702.727L1536.72 794.439L1538.72 794.33L1533.68 702.618L1531.69 702.727ZM1537.66 793.386L1416.84 800.015L1416.95 802.012L1537.77 795.383L1537.66 793.386ZM1415.9 801.068L1418.91 855.986L1420.91 855.876L1417.9 800.959L1415.9 801.068ZM1419.97 856.929L1557.26 849.396L1557.15 847.399L1419.86 854.932L1419.97 856.929ZM1556.21 848.453L1561.54 945.657L1563.54 945.547L1558.2 848.343L1556.21 848.453ZM1562.48 944.603L1303.27 958.826L1303.38 960.823L1562.59 946.6L1562.48 944.603ZM1304.33 959.769L1282.99 570.954L1281 571.064L1302.33 959.879L1304.33 959.769ZM1282.05 572.007L1541.26 557.785L1541.15 555.788L1281.94 570.01L1282.05 572.007ZM1540.21 556.841L1545.54 654.045L1547.54 653.936L1542.2 556.732L1540.21 556.841ZM1546.48 652.992L1409.19 660.525L1409.3 662.522L1546.59 654.989L1546.48 652.992ZM1857.05 564.244L1856.63 565.148L1856.63 565.15L1857.05 564.244ZM1931.66 629.004L1932.51 628.466L1931.66 629.004ZM1942.63 828.903L1943.53 829.34L1942.63 828.903ZM1875.65 903.084L1876.18 903.931L1876.18 903.929L1875.65 903.084ZM1608.49 943.081L1607.49 943.136L1607.54 944.134L1608.54 944.079L1608.49 943.081ZM1587.15 554.266L1587.1 553.267L1586.1 553.322L1586.15 554.32L1587.15 554.266ZM1817.66 799.956L1818.38 800.649L1817.66 799.956ZM1810.61 671.449L1811.25 670.682L1810.61 671.449ZM1714.91 654.116L1714.86 653.118L1713.86 653.172L1713.92 654.171L1714.91 654.116ZM1724.44 827.655L1723.44 827.71L1723.49 828.708L1724.49 828.653L1724.44 827.655ZM1749.21 546.375C1789.71 544.153 1825.51 550.423 1856.63 565.148L1857.48 563.34C1826.02 548.449 1789.88 542.141 1749.1 544.378L1749.21 546.375ZM1856.63 565.15C1888.12 579.86 1912.84 601.322 1930.82 629.541L1932.51 628.466C1914.32 599.914 1889.3 578.203 1857.48 563.338L1856.63 565.15ZM1930.82 629.541C1948.8 657.766 1958.82 690.46 1960.86 727.652L1962.86 727.543C1960.8 690.047 1950.69 657.012 1932.51 628.466L1930.82 629.541ZM1960.86 727.652C1962.88 764.476 1956.5 798.073 1941.73 828.466L1943.53 829.34C1958.46 798.614 1964.9 764.674 1962.86 727.543L1960.86 727.652ZM1941.73 828.466C1926.97 858.852 1904.77 883.44 1875.11 902.24L1876.18 903.929C1906.14 884.939 1928.6 860.073 1943.53 829.34L1941.73 828.466ZM1875.11 902.237C1845.82 920.642 1810.94 930.971 1770.44 933.193L1770.55 935.19C1811.33 932.953 1846.55 922.544 1876.18 903.931L1875.11 902.237ZM1770.44 933.193L1608.43 942.082L1608.54 944.079L1770.55 935.19L1770.44 933.193ZM1609.48 943.026L1588.15 554.211L1586.15 554.32L1607.49 943.136L1609.48 943.026ZM1587.21 555.264L1749.21 546.375L1749.1 544.378L1587.1 553.267L1587.21 555.264ZM1753.6 827.056C1781.24 825.54 1802.88 816.769 1818.38 800.649L1816.94 799.263C1801.87 814.933 1780.76 823.563 1753.49 825.059L1753.6 827.056ZM1818.38 800.649C1833.91 784.505 1840.83 762.346 1839.3 734.322L1837.3 734.432C1838.81 762.057 1831.98 783.618 1816.94 799.263L1818.38 800.649ZM1839.3 734.322C1837.76 706.298 1828.45 685.031 1811.25 670.682L1809.97 672.217C1826.63 686.122 1835.78 706.806 1837.3 734.432L1839.3 734.322ZM1811.25 670.682C1794.08 656.355 1771.61 650.004 1743.97 651.521L1744.08 653.518C1771.35 652.021 1793.27 658.29 1809.97 672.217L1811.25 670.682ZM1743.97 651.521L1714.86 653.118L1714.97 655.115L1744.08 653.518L1743.97 651.521ZM1713.92 654.171L1723.44 827.71L1725.43 827.6L1715.91 654.061L1713.92 654.171ZM1724.49 828.653L1753.6 827.056L1753.49 825.059L1724.38 826.656L1724.49 828.653ZM2103.82 893.87L2103.38 894.765L2103.38 894.768L2103.82 893.87ZM2027.42 826.454L2026.58 827.009L2027.42 826.454ZM2084.75 546.242L2085.28 547.089L2085.29 547.087L2084.75 546.242ZM2286.3 535.184L2285.85 536.08L2285.86 536.084L2286.3 535.184ZM2362.13 602.08L2361.29 602.627L2361.29 602.635L2362.13 602.08ZM2373.39 807.471L2372.51 807.011L2372.5 807.019L2373.39 807.471ZM2304.82 882.841L2304.29 881.997L2304.28 881.999L2304.82 882.841ZM2254.8 774.319L2255.59 774.927L2255.6 774.918L2254.8 774.319ZM2247.87 648.009L2247.14 648.692L2247.15 648.7L2247.87 648.009ZM2135.29 654.186L2136.08 654.794L2136.09 654.785L2135.29 654.186ZM2142.22 780.496L2141.49 781.179L2141.5 781.187L2142.22 780.496ZM2206.23 913.138C2169.79 915.138 2135.8 908.413 2104.26 892.971L2103.38 894.768C2135.24 910.366 2169.57 917.153 2206.34 915.135L2206.23 913.138ZM2104.27 892.974C2073.09 877.512 2047.76 855.159 2028.25 825.9L2026.58 827.009C2046.29 856.556 2071.89 879.147 2103.38 894.765L2104.27 892.974ZM2028.25 825.9C2008.75 796.657 1997.95 763.093 1995.87 725.18L1993.87 725.29C1995.97 763.53 2006.87 797.445 2026.58 827.009L2028.25 825.9ZM1995.87 725.18C1993.79 687.268 2000.85 652.724 2017.03 621.524L2015.26 620.603C1998.9 652.146 1991.77 687.05 1993.87 725.29L1995.87 725.18ZM2017.03 621.524C2033.23 590.307 2055.97 565.501 2085.28 547.089L2084.22 545.396C2054.6 564.001 2031.61 589.075 2015.26 620.603L2017.03 621.524ZM2085.29 547.087C2114.94 528.287 2147.99 517.885 2184.44 515.885L2184.33 513.888C2147.55 515.906 2114.17 526.408 2084.21 545.398L2085.29 547.087ZM2184.44 515.885C2220.88 513.886 2254.68 520.62 2285.85 536.08L2286.74 534.288C2255.25 518.667 2221.1 511.871 2184.33 513.888L2184.44 515.885ZM2285.86 536.084C2317.01 551.178 2342.15 573.354 2361.29 602.627L2362.96 601.533C2343.62 571.959 2318.21 549.538 2286.73 534.284L2285.86 536.084ZM2361.29 602.635C2380.79 631.878 2391.59 665.442 2393.67 703.354L2395.67 703.244C2393.57 665.004 2382.67 631.089 2362.96 601.525L2361.29 602.635ZM2393.67 703.354C2395.75 741.266 2388.69 775.81 2372.51 807.011L2374.28 807.932C2390.64 776.388 2397.77 741.484 2395.67 703.244L2393.67 703.354ZM2372.5 807.019C2356.68 838.209 2333.94 863.198 2304.29 881.997L2305.36 883.686C2335.32 864.695 2358.3 839.436 2374.29 807.924L2372.5 807.019ZM2304.28 881.999C2274.99 900.777 2242.31 911.158 2206.23 913.138L2206.34 915.135C2242.75 913.137 2275.77 902.655 2305.36 883.683L2304.28 881.999ZM2200.11 801.456C2224.5 800.117 2243.05 791.304 2255.59 774.927L2254.01 773.71C2241.88 789.534 2223.93 798.146 2200 799.459L2200.11 801.456ZM2255.6 774.918C2268.09 758.215 2273.56 736.551 2272.1 710.024L2270.11 710.134C2271.54 736.327 2266.14 757.49 2254 773.72L2255.6 774.918ZM2272.1 710.024C2270.63 683.136 2262.83 662.192 2248.59 647.317L2247.15 648.7C2260.96 663.133 2268.65 683.568 2270.11 710.134L2272.1 710.024ZM2248.6 647.326C2234.32 632.05 2214.91 625.13 2190.5 626.469L2190.61 628.466C2214.54 627.153 2233.33 633.927 2247.14 648.692L2248.6 647.326ZM2190.5 626.469C2165.74 627.828 2147.02 636.837 2134.49 653.587L2136.09 654.785C2148.19 638.602 2166.32 629.799 2190.61 628.466L2190.5 626.469ZM2134.5 653.577C2121.97 669.92 2116.51 691.593 2117.99 718.48L2119.98 718.371C2118.53 691.805 2123.93 670.651 2136.08 654.794L2134.5 653.577ZM2117.99 718.48C2119.44 745.007 2127.24 765.944 2141.49 781.179L2142.95 779.813C2129.11 765.008 2121.42 744.564 2119.98 718.371L2117.99 718.48ZM2141.5 781.187C2155.77 796.096 2175.35 802.814 2200.11 801.456L2200 799.459C2175.69 800.792 2156.72 794.203 2142.94 779.804L2141.5 781.187Z" fill="black" mask="url(#path-1-outside-1_194_2)"/>
</svg>
